<svg fill="#01393a" version="1.1" id="Capa_1" xmlns="http://www.w3.org/2000/svg" xmlns:xlink="http://www.w3.org/1999/xlink" viewBox="0 0 49.174 49.174" xml:space="preserve" transform="rotate(270)matrix(-1, 0, 0, 1, 0, 0)"><g id="SVGRepo_bgCarrier" stroke-width="0"></g><g id="SVGRepo_tracerCarrier" stroke-linecap="round" stroke-linejoin="round"></g><g id="SVGRepo_iconCarrier"> <g> <path d="M34.896,38.159c-0.058,0-0.106,0.024-0.162,0.032H25.92v-9.01h0.449c0.549,0,0.992-0.445,0.992-0.994 s-0.443-0.994-0.992-0.994H25.92v-0.73h0.449c0.549,0,0.992-0.445,0.992-0.994c0-0.548-0.443-0.993-0.992-0.993H25.92v-0.553 c0.609-0.311,1.011-0.826,1.011-1.41c0-0.063-0.017-0.121-0.024-0.182c6.539-0.899,11.541-5.519,11.541-11.081 C38.447,5.046,32.229,0,24.586,0s-13.86,5.046-13.86,11.25c0,5.563,5.002,10.182,11.541,11.081 c-0.008,0.061-0.024,0.119-0.024,0.182c0,0.636,0.478,1.185,1.178,1.481v0.481h-0.45c-0.549,0-0.993,0.445-0.993,0.993 c0,0.55,0.444,0.994,0.993,0.994h0.45v0.731h-0.45c-0.549,0-0.993,0.443-0.993,0.992s0.444,0.994,0.993,0.994h0.45v14.43v1.74 v2.565c0,0.694,0.563,1.259,1.259,1.259s1.258-0.562,1.258-1.259v-1.922c0.171,0.302,0.481,0.514,0.853,0.514 c0.519,0,0.929-0.399,0.977-0.903h0.02v-5.043h2.109c-0.002,0.024-0.014,0.047-0.014,0.07v5.93c0,0.51,0.412,0.922,0.92,0.922 c0.509,0,0.921-0.412,0.921-0.922v-5.93c0-0.017-0.009-0.031-0.011-0.049v-0.021h2.19v4.989c0,0.55,0.444,0.994,0.993,0.994 c0.53,0,0.954-0.418,0.982-0.94h0.011V45.55v-6.397v-0.961h-0.831C35.002,38.184,34.953,38.159,34.896,38.159z M26.816,21.258 c0.006-0.004,0.012-0.008,0.016-0.012l0.031-0.027c0.016-0.019,0.029-0.035,0.045-0.053l0.021-0.029 c0.012-0.02,0.021-0.039,0.028-0.058l0.015-0.029c0.011-0.025,0.017-0.054,0.022-0.083l0.002-0.01 c0.004-0.025,0.006-0.05,0.008-0.074l-0.002-0.006c0.002-0.031,0-0.064-0.002-0.097c-0.004-0.032-0.012-0.062-0.018-0.089 c-0.076-0.295-0.318-0.426-0.548-0.379c-0.028,0.005-0.056,0.012-0.079,0.021c-0.17,0.072-0.236,0.252-0.232,0.367 c0.006,0.136,0.11,0.233,0.271,0.203c0.06-0.011,0.188-0.021,0.158-0.116c-0.003-0.013-0.011-0.021-0.019-0.026 c-0.053-0.043-0.176,0.052-0.19-0.103c-0.003-0.014,0.001-0.027,0.004-0.042l0.001-0.008c0.007-0.025,0.023-0.049,0.051-0.066 c0.021-0.016,0.049-0.03,0.085-0.037c0.104-0.019,0.224,0.096,0.252,0.212c0.009,0.04,0.013,0.078,0.013,0.111v0.03 c-0.002,0.023-0.004,0.046-0.01,0.065l-0.009,0.027c-0.007,0.019-0.017,0.036-0.026,0.052l-0.014,0.021 c-0.018,0.021-0.036,0.04-0.059,0.056c-0.027,0.021-0.062,0.036-0.096,0.05c-0.008,0.003-0.014,0.005-0.021,0.008 c-0.036,0.012-0.074,0.021-0.116,0.03c-0.136,0.023-0.275,0.012-0.388-0.037c-0.011-0.003-0.019-0.007-0.027-0.014 c-0.021-0.011-0.043-0.024-0.063-0.04v-0.411h-0.146c0.007-0.041,0.013-0.082,0.027-0.13c0.021-0.062,0.053-0.124,0.092-0.187 l0.644-0.601c0.279-0.186,0.592-0.34,0.86-0.428c0.088-0.024,0.177-0.042,0.265-0.056c0.082-0.012,0.16-0.024,0.24-0.036 l0.01-0.002c0.274-0.031,0.535-0.001,0.733,0.118c0.082,0.049,0.151,0.116,0.208,0.199c0.002,0.003,0.002,0.005,0.005,0.008 c0.021,0.033,0.048,0.064,0.063,0.103c0.021,0.048,0.029,0.089,0.039,0.129c0.004,0.017,0.011,0.036,0.016,0.052 c0.006,0.032,0.005,0.06,0.006,0.089v0.013c0,0.025,0,0.051-0.004,0.074c-0.009,0.059-0.027,0.109-0.053,0.152 c-0.051,0.082-0.119,0.133-0.159,0.158c-0.003,0.001-0.008,0.002-0.009,0.004c-0.008,0.004-0.014,0.008-0.021,0.011 c-0.002,0.002-0.009,0.005-0.009,0.005c0.181,0.025,0.384,0.027,0.562-0.036c0.396-0.126,0.679-0.421,0.463-0.84 c-0.199-0.388-0.649-0.555-0.754-0.592c-0.017-0.006-0.023-0.008-0.023-0.008c0.218-0.054,0.475,0.013,0.779,0.034 c0.299,0.004,0.662-0.016,1.059-0.244c0.568-0.355,0.447-0.889,0.447-0.889c0.066-0.055,0.111-0.125,0.139-0.201 c0.01-0.025,0.016-0.054,0.021-0.079c0.104,0.019,0.215,0.011,0.313-0.048c0,0,0.111,0.082,0.296,0.117 c0.188,0.041,0.438,0.012,0.706-0.194c0.38-0.272,0.528-0.626,0.63-0.915c0.104-0.276,0.125-0.545,0.239-0.736l0.011-0.012 c-0.002,0.024-0.005,0.152,0.024,0.327c0.032,0.192,0.104,0.439,0.271,0.618c0.059,0.063,0.118,0.108,0.18,0.14 c0.277,0.142,0.576-0.047,0.793-0.343c0.125-0.157,0.205-0.365,0.238-0.563c0,0-0.004,0.005-0.008,0.008 c-0.005,0.006-0.01,0.012-0.018,0.019l-0.01,0.007c-0.036,0.037-0.108,0.094-0.205,0.121l-0.01,0.003 c-0.045,0.013-0.096,0.017-0.154,0.009c-0.032-0.005-0.069-0.017-0.105-0.029c-0.021-0.008-0.046-0.014-0.07-0.027 c-0.032-0.017-0.065-0.045-0.1-0.07c-0.018-0.014-0.035-0.021-0.054-0.038c-0.05-0.043-0.087-0.091-0.117-0.143 c-0.011-0.018-0.017-0.037-0.024-0.055c-0.018-0.034-0.035-0.073-0.045-0.111c-0.007-0.022-0.011-0.048-0.017-0.074 c-0.007-0.036-0.013-0.073-0.015-0.113c0-0.025,0-0.052,0-0.079c0-0.039,0.002-0.078,0.009-0.118 c0.004-0.027,0.008-0.054,0.013-0.082c0.01-0.041,0.02-0.083,0.03-0.125c0.007-0.026,0.015-0.052,0.022-0.08 c0.018-0.045,0.037-0.092,0.056-0.139l0.026-0.065c0.055-0.147,0.121-0.297,0.202-0.438c0.185-0.285,0.415-0.619,0.698-0.905 c0.277-0.284,0.541-0.547,0.802-0.614c0.064-0.017,0.121-0.025,0.175-0.025c0.053-0.001,0.102,0.006,0.145,0.021 c0.257,0.08,0.327,0.434,0.234,0.76c-0.014,0.059-0.039,0.107-0.066,0.153l-0.007,0.013c-0.025,0.042-0.056,0.077-0.085,0.107 l-0.016,0.014c-0.033,0.025-0.068,0.047-0.105,0.058l-0.016,0.003c-0.041,0.009-0.086,0.011-0.136,0.001 c-0.028-0.006-0.063-0.017-0.095-0.031c-0.107-0.05-0.193-0.195-0.15-0.309c0.016-0.036,0.033-0.063,0.053-0.083l0.013-0.012 c0.021-0.018,0.034-0.031,0.056-0.037s0.04-0.008,0.061-0.003c0.154,0.036,0.033,0.161,0.063,0.227 c0.003,0.009,0.011,0.017,0.022,0.023c0.021,0.01,0.039,0.009,0.054,0.003l0.015-0.01c0.01-0.008,0.021-0.017,0.029-0.029 l0.012-0.021l0.019-0.037c0.011-0.024,0.021-0.05,0.024-0.067v-0.001l0,0c0.051-0.183-0.033-0.313-0.168-0.334 c-0.137-0.021-0.345,0.061-0.434,0.302v0.001c-0.018,0.041-0.027,0.084-0.034,0.128l-0.004,0.026c-0.007,0.077,0,0.154,0.026,0.228 l0.013,0.025c0.013,0.023,0.022,0.047,0.039,0.07c0.006,0.011,0.013,0.021,0.021,0.029c0.018,0.021,0.034,0.041,0.055,0.06 l0.025,0.024c0.032,0.025,0.066,0.049,0.107,0.067c0.025,0.013,0.055,0.024,0.084,0.034c0.029,0.009,0.062,0.016,0.094,0.019 l0.006,0.002c0.024,0.003,0.049,0.003,0.073,0.003h0.015c0.026-0.003,0.058-0.005,0.086-0.013l0.029-0.009 c0.023-0.008,0.045-0.016,0.067-0.026l0.034-0.02c0.021-0.012,0.041-0.026,0.062-0.042c0.012-0.009,0.023-0.021,0.036-0.031 c0.021-0.017,0.041-0.038,0.062-0.062l0.035-0.04c0.02-0.027,0.041-0.06,0.059-0.092c0.011-0.016,0.019-0.029,0.029-0.047 c0.024-0.052,0.058-0.108,0.076-0.177c0.02-0.067,0.032-0.133,0.04-0.197l0.005-0.063c0.002-0.041,0.006-0.083,0.008-0.121 l-0.004-0.069c-0.004-0.034-0.006-0.068-0.011-0.103l-0.014-0.063c-0.009-0.032-0.017-0.063-0.024-0.093 c-0.005-0.021-0.012-0.037-0.021-0.055c-0.011-0.03-0.023-0.059-0.039-0.087c-0.007-0.015-0.015-0.027-0.021-0.041 c-0.022-0.037-0.047-0.073-0.072-0.104l-0.01-0.011c-0.023-0.028-0.048-0.055-0.074-0.079l-0.006-0.005 c-0.035-0.03-0.076-0.058-0.113-0.081c-0.043-0.025-0.088-0.046-0.129-0.063c0.022,0.01,0.051,0.016,0.078,0.019 c0.215,0.025,0.533-0.111,0.799-0.316c0.041-0.032,0.076-0.065,0.115-0.1C36.926,16.635,32.519,20.455,26.816,21.258z M37.351,10.928c-0.001-0.002-0.002-0.004-0.003-0.005l-0.018-0.015c-0.047-0.042-0.101-0.084-0.153-0.124 c-0.001-0.001-0.005-0.003-0.005-0.003c-0.053-0.039-0.108-0.074-0.164-0.107l-0.026-0.016c-0.055-0.031-0.11-0.061-0.166-0.083 c-0.005-0.002-0.009-0.003-0.012-0.005c-0.052-0.021-0.104-0.039-0.152-0.053l-0.022-0.005c-0.051-0.012-0.098-0.019-0.144-0.019 c-0.007-0.003-0.016-0.002-0.024-0.002c-0.045,0.002-0.086,0.007-0.123,0.02c0.043-0.016,0.084-0.037,0.127-0.062l0.025-0.019 c0.032-0.02,0.067-0.043,0.096-0.069l0.002-0.001c0.037-0.033,0.072-0.071,0.104-0.115c0.008-0.006,0.01-0.014,0.014-0.021 c0.026-0.037,0.053-0.075,0.072-0.118c0-0.002,0-0.002,0.002-0.002c0.016-0.034,0.028-0.073,0.041-0.111 c0.006-0.02,0.014-0.036,0.02-0.058c0.016-0.056,0.025-0.117,0.031-0.182l0.004-0.014c0.004-0.065,0.002-0.136-0.006-0.209V9.521 c-0.009-0.078-0.022-0.158-0.047-0.241c-0.02-0.067-0.051-0.124-0.076-0.176c-0.012-0.017-0.021-0.032-0.028-0.045 c-0.019-0.034-0.04-0.067-0.06-0.093c-0.014-0.015-0.023-0.028-0.035-0.041c-0.021-0.023-0.039-0.045-0.062-0.063l-0.036-0.031 c-0.021-0.015-0.042-0.027-0.062-0.041c-0.012-0.007-0.022-0.013-0.035-0.02c-0.021-0.011-0.043-0.019-0.064-0.024l-0.031-0.01 c-0.028-0.008-0.06-0.012-0.088-0.014h-0.01c-0.027-0.001-0.051-0.001-0.076,0.003l-0.006,0.001 C36.121,8.73,36.09,8.737,36.06,8.747C36.029,8.756,36,8.768,35.976,8.78c-0.28,0.137-0.347,0.419-0.249,0.66 c0.012,0.029,0.025,0.057,0.041,0.083c0.093,0.178,0.275,0.235,0.391,0.219c0.137-0.021,0.221-0.153,0.168-0.335 c-0.021-0.067-0.064-0.208-0.15-0.163c-0.012,0.006-0.02,0.015-0.021,0.023c-0.029,0.064,0.092,0.19-0.062,0.228 c-0.016,0.003-0.028,0.002-0.042,0l-0.009,0.001c-0.026-0.005-0.051-0.023-0.076-0.05c-0.021-0.021-0.039-0.047-0.055-0.087 c-0.045-0.112,0.041-0.26,0.149-0.308c0.038-0.018,0.074-0.026,0.108-0.033l0.029-0.002c0.022-0.003,0.047-0.003,0.067,0 l0.028,0.007c0.021,0.005,0.041,0.012,0.06,0.022l0.022,0.011c0.025,0.016,0.051,0.035,0.07,0.06 c0.027,0.028,0.051,0.063,0.072,0.101c0.004,0.008,0.008,0.014,0.014,0.021c0.021,0.039,0.041,0.081,0.053,0.13 c0.043,0.157,0.05,0.323,0.015,0.46c-0.002,0.011-0.006,0.021-0.011,0.031c-0.01,0.032-0.021,0.061-0.036,0.088 c-0.005,0.011-0.009,0.021-0.017,0.029c-0.021,0.035-0.045,0.066-0.074,0.09h-0.002c-0.027,0.025-0.062,0.042-0.101,0.056 l-0.034,0.01c-0.029,0.009-0.061,0.012-0.095,0.014c-0.015,0-0.026,0-0.044,0c-0.046-0.001-0.1-0.008-0.156-0.022 c-0.261-0.067-0.523-0.33-0.802-0.615c-0.283-0.286-0.515-0.62-0.696-0.903c-0.049-0.083-0.09-0.167-0.128-0.253 c-0.036-0.078-0.06-0.162-0.097-0.235l-0.004-0.01c-0.113-0.263-0.165-0.528-0.114-0.763c0.021-0.098,0.062-0.185,0.118-0.264 l0.005-0.007c0.022-0.031,0.045-0.065,0.076-0.094c0.038-0.033,0.075-0.055,0.11-0.077c0.015-0.011,0.028-0.022,0.043-0.031 c0.028-0.015,0.057-0.021,0.086-0.031l0.013-0.004c0.024-0.008,0.049-0.017,0.073-0.02c0.062-0.01,0.117-0.004,0.168,0.01 c0.097,0.028,0.17,0.087,0.207,0.122c0.002,0.003,0.006,0.006,0.007,0.007c0.007,0.007,0.014,0.014,0.019,0.018 c0.004,0.003,0.008,0.01,0.008,0.01c-0.033-0.198-0.113-0.406-0.237-0.564c-0.267-0.362-0.652-0.559-0.974-0.202 c-0.287,0.319-0.295,0.818-0.295,0.93c0,0.018,0,0.026,0,0.026c-0.125-0.193-0.141-0.472-0.25-0.759 c-0.102-0.29-0.25-0.643-0.63-0.915c-0.269-0.206-0.519-0.235-0.704-0.194c-0.186,0.036-0.298,0.117-0.298,0.117 C31.66,5.379,31.58,5.363,31.5,5.366c-0.027,0-0.056,0.005-0.082,0.008c-0.021-0.105-0.068-0.206-0.158-0.279 c0,0,0.121-0.533-0.447-0.89c-0.396-0.229-0.76-0.248-1.059-0.243c-0.307,0.021-0.562,0.087-0.779,0.034c0,0,0.55-0.157,0.779-0.6 c0.039-0.078,0.061-0.149,0.068-0.217c0.041-0.304-0.209-0.521-0.531-0.623c-0.178-0.063-0.383-0.063-0.562-0.037 c0,0,0.006,0.003,0.01,0.006c0.006,0.002,0.012,0.006,0.021,0.01l0.009,0.006c0.042,0.024,0.109,0.073,0.157,0.156l0.006,0.008 c0.021,0.039,0.038,0.087,0.048,0.143c0.006,0.03,0.006,0.067,0.003,0.104c0.001,0.024,0.002,0.047-0.005,0.075 c-0.006,0.036-0.021,0.076-0.036,0.116c-0.007,0.021-0.008,0.04-0.021,0.063c-0.022,0.06-0.057,0.112-0.096,0.159 c-0.015,0.017-0.029,0.028-0.045,0.043c-0.027,0.029-0.057,0.056-0.09,0.079c-0.018,0.011-0.039,0.023-0.062,0.037 c-0.03,0.018-0.062,0.034-0.098,0.049l-0.072,0.024c-0.037,0.01-0.073,0.021-0.112,0.026c-0.024,0.005-0.052,0.009-0.078,0.013 c-0.04,0.004-0.082,0.008-0.124,0.009c-0.025,0.001-0.053,0.001-0.079,0.002c-0.047-0.004-0.096-0.008-0.146-0.013l-0.067-0.008 C27.703,3.6,27.547,3.584,27.397,3.54c-0.606-0.196-1.427-0.717-1.597-1.215c-0.02-0.063-0.031-0.116-0.035-0.169 c-0.005-0.053-0.002-0.102,0.009-0.146c0.052-0.267,0.345-0.368,0.625-0.317c0.05,0.009,0.095,0.022,0.138,0.039l0.013,0.005 c0.038,0.015,0.071,0.037,0.102,0.06l0.015,0.013c0.025,0.025,0.047,0.055,0.062,0.09l0.005,0.016 c0.013,0.036,0.021,0.08,0.019,0.129c-0.002,0.03-0.006,0.064-0.016,0.1c-0.027,0.115-0.146,0.23-0.252,0.211 c-0.033-0.007-0.059-0.02-0.08-0.033L26.393,2.31c-0.02-0.014-0.031-0.03-0.039-0.05c-0.007-0.019-0.014-0.038-0.01-0.06 c0.015-0.154,0.138-0.059,0.191-0.101c0.006-0.007,0.014-0.016,0.017-0.028c0.008-0.022,0.005-0.04-0.003-0.054l-0.012-0.011 c-0.008-0.009-0.017-0.016-0.027-0.022l-0.021-0.008l-0.033-0.01c-0.022-0.004-0.045-0.008-0.062-0.011h-0.001 c-0.16-0.031-0.264,0.066-0.271,0.203c-0.004,0.133,0.086,0.346,0.312,0.39h0.001c0.04,0.008,0.08,0.009,0.119,0.005l0.024-0.001 c0.068-0.009,0.137-0.033,0.197-0.074l0.021-0.018c0.019-0.017,0.037-0.032,0.056-0.052c0.009-0.009,0.017-0.018,0.022-0.028 c0.017-0.021,0.031-0.042,0.045-0.064l0.018-0.031c0.018-0.035,0.032-0.073,0.044-0.116c0.005-0.027,0.013-0.057,0.017-0.09 c0.004-0.03,0.004-0.063,0.002-0.096l0.002-0.006c-0.004-0.023-0.004-0.048-0.008-0.073l-0.002-0.013 c-0.007-0.028-0.014-0.056-0.022-0.082l-0.013-0.027c-0.01-0.02-0.02-0.038-0.03-0.06l-0.021-0.028 c-0.015-0.019-0.029-0.035-0.045-0.053c-0.009-0.008-0.02-0.018-0.031-0.026c-0.017-0.018-0.037-0.032-0.06-0.047l-0.038-0.024 c-0.025-0.015-0.056-0.027-0.086-0.039c-0.011-0.005-0.023-0.013-0.04-0.018c-0.046-0.016-0.099-0.03-0.157-0.041 c-0.057-0.011-0.111-0.016-0.166-0.017L26.229,1.43c-0.034,0.001-0.069,0.003-0.101,0.007l-0.057,0.011L25.988,1.47L25.935,1.49 L25.86,1.523c-0.017,0.007-0.03,0.018-0.046,0.026c-0.023,0.015-0.047,0.033-0.068,0.053L25.711,1.63 c-0.03,0.027-0.059,0.056-0.084,0.087l-0.008,0.01c-0.023,0.028-0.045,0.056-0.063,0.086L25.551,1.82 c-0.024,0.039-0.045,0.079-0.062,0.118c-0.021,0.043-0.035,0.089-0.049,0.132c0.008-0.023,0.012-0.051,0.014-0.079 c0.018-0.248-0.17-0.621-0.381-0.896C31.756,1.296,37.14,5.601,37.351,10.928z M24.293,6.604l0.001,0.004 c0.026,0.047,0.053,0.096,0.077,0.141l0.009,0.015c0.024,0.04,0.05,0.081,0.073,0.119l0.01,0.016 c0.046,0.068,0.09,0.117,0.127,0.145c0.003,0.003,0.007,0.007,0.011,0.008c0.017,0.011,0.032,0.018,0.046,0.016 c0.121,0.017,0.472-0.6,0.572-1.037l0.051-0.083c0.008,0.036,0.019,0.071,0.029,0.107l0.002,0.007 c0.013,0.029,0.024,0.06,0.036,0.09l0.005,0.012c0.014,0.031,0.03,0.063,0.049,0.092l0.021,0.028l0.041,0.058 c0.01,0.01,0.019,0.019,0.027,0.03l0.046,0.046l0.031,0.029l0.051,0.037l0.036,0.021c0.02,0.011,0.042,0.019,0.064,0.025 l0.033,0.014c0.034,0.009,0.07,0.014,0.11,0.015c0.039,0.001,0.076-0.004,0.108-0.01c0.012-0.002,0.021-0.007,0.031-0.01 c0.021-0.006,0.043-0.013,0.062-0.022c0.01-0.005,0.021-0.011,0.029-0.017c0.019-0.01,0.035-0.021,0.05-0.032 c0.01-0.007,0.019-0.014,0.026-0.022c0.016-0.012,0.028-0.026,0.041-0.041l0.021-0.024c0.013-0.018,0.023-0.034,0.035-0.05 l0.014-0.024c0.014-0.026,0.025-0.051,0.037-0.073l0.006-0.013l0.021-0.066l0.002-0.005c0.01-0.03,0.019-0.063,0.023-0.093 c0.004-0.032,0.008-0.063,0.014-0.09c0.004-0.046,0.004-0.086,0.002-0.125l-0.006-0.034c-0.002-0.028-0.008-0.052-0.014-0.074 c-0.002-0.012-0.006-0.021-0.011-0.032c-0.009-0.022-0.017-0.043-0.027-0.061l-0.012-0.023c-0.035-0.051-0.08-0.088-0.132-0.111 L26.164,5.5c-0.03-0.012-0.062-0.02-0.095-0.021c-0.186-0.005-0.291,0.188-0.31,0.319c-0.018,0.133,0.037,0.25,0.154,0.252l0,0 c0.014,0,0.029,0,0.045,0.001c0.01-0.001,0.018-0.002,0.026-0.003l0.017-0.003c0.01-0.004,0.019-0.011,0.023-0.017 c0.004-0.004,0.008-0.005,0.01-0.009c0.008-0.011,0.016-0.028,0.016-0.052c0-0.012-0.002-0.022-0.008-0.03 c-0.027-0.053-0.135,0.017-0.115-0.138c0.004-0.021,0.01-0.038,0.02-0.056c0.01-0.017,0.022-0.03,0.039-0.041l0.01-0.009 c0.02-0.008,0.041-0.016,0.067-0.015c0.084,0.002,0.144,0.137,0.134,0.256c-0.003,0.036-0.008,0.069-0.015,0.099 c-0.009,0.049-0.024,0.088-0.042,0.122l-0.008,0.014c-0.018,0.032-0.039,0.057-0.063,0.075l-0.013,0.01 c-0.025,0.019-0.051,0.031-0.081,0.04c-0.003,0-0.006,0.001-0.011,0.003c-0.03,0.008-0.062,0.011-0.098,0.01 c-0.199-0.002-0.379-0.164-0.386-0.431c-0.002-0.088,0.017-0.194,0.063-0.307c0.045-0.114,0.134-0.224,0.248-0.324l1.229-0.427 c0.035,0.002,0.072,0,0.105,0.005c0.139,0.019,0.279,0.037,0.402,0.098l0.057,0.027c0.039,0.019,0.078,0.04,0.113,0.062 c0.022,0.014,0.041,0.026,0.061,0.041c0.031,0.021,0.061,0.042,0.09,0.065c0.018,0.016,0.035,0.032,0.051,0.05 c0.025,0.024,0.049,0.05,0.069,0.076L28.01,5.3c0.02,0.029,0.031,0.06,0.045,0.091c0.011,0.019,0.02,0.038,0.023,0.06 c0.012,0.034,0.018,0.072,0.021,0.108c0.002,0.02,0.005,0.039,0.007,0.058C28.106,5.676,28.1,5.735,28.084,5.8 c-0.006,0.025-0.015,0.041-0.021,0.063c-0.013,0.04-0.024,0.082-0.038,0.114c-0.012,0.025-0.023,0.044-0.037,0.064 c-0.017,0.034-0.035,0.064-0.056,0.09c-0.033,0.043-0.067,0.075-0.101,0.1l-0.008,0.005c-0.068,0.047-0.131,0.06-0.166,0.064 l-0.01,0.001c-0.006,0-0.013,0.001-0.015,0c-0.003,0-0.009,0-0.009,0c0.092,0.107,0.213,0.178,0.328,0.235 c0.213,0.094,0.455,0.058,0.617-0.2c0.037-0.059,0.069-0.128,0.096-0.208c0.158-0.47-0.113-0.929-0.113-0.929 c0.179,0.097,0.312,0.295,0.475,0.501c0.157,0.225,0.355,0.437,0.688,0.584c0.463,0.233,0.882-0.134,0.882-0.134 c0.046,0.027,0.095,0.038,0.146,0.041l0.184,0.126c0.021,0.046,0.049,0.088,0.087,0.121c0,0-0.042,0.13-0.035,0.299 c0.015,0.163,0.056,0.383,0.241,0.559c0.27,0.233,0.516,0.343,0.773,0.408c0.262,0.063,0.476,0.125,0.621,0.258 c0,0-0.008-0.001-0.021-0.004c-0.108-0.018-0.53-0.057-0.872,0.221c-0.354,0.29-0.354,0.591-0.187,0.771 c0.084,0.08,0.182,0.153,0.297,0.198c0,0,0-0.005,0-0.007c-0.004-0.003-0.004-0.008-0.004-0.014 c-0.002-0.001-0.002-0.004-0.002-0.006c-0.005-0.031-0.006-0.091,0.024-0.167c0.017-0.04,0.039-0.083,0.071-0.129 c0.015-0.018,0.029-0.035,0.047-0.055c0.002-0.003,0.006-0.006,0.009-0.009c0.021-0.021,0.036-0.041,0.062-0.062 c0.013-0.01,0.026-0.021,0.041-0.03c0.035-0.027,0.064-0.054,0.106-0.081c0.038-0.023,0.075-0.037,0.11-0.054l0.011-0.004 c0.091-0.039,0.177-0.058,0.261-0.055c0.202,0.009,0.396,0.126,0.559,0.303l0.006,0.006c0.053,0.049,0.082,0.112,0.117,0.174 c0.035,0.067,0.066,0.137,0.094,0.209c0.113,0.251,0.085,0.606-0.002,0.896c-0.09,0.294-0.305,0.533-0.516,0.634 c-0.051,0.021-0.097,0.038-0.144,0.052c-0.013,0.004-0.024,0.007-0.039,0.011c-0.032,0.008-0.063,0.014-0.095,0.018 c-0.012,0.001-0.024,0.003-0.036,0.004c-0.04,0.004-0.077,0.004-0.111,0.001h-0.001c-0.033-0.003-0.066-0.01-0.096-0.018 l-0.023-0.009c-0.023-0.007-0.041-0.016-0.061-0.024c-0.006-0.004-0.012-0.007-0.018-0.011c-0.072-0.043-0.111-0.104-0.115-0.176 c0.002-0.023,0.002-0.044,0.002-0.063v-0.012c0.002-0.021,0.008-0.042,0.019-0.062c0.009-0.016,0.021-0.032,0.034-0.048 l0.014-0.013c0.014-0.01,0.026-0.021,0.041-0.031l0.023-0.016c0.018-0.01,0.035-0.02,0.058-0.028l0.026-0.013 c0.031-0.012,0.066-0.024,0.107-0.035c0.114-0.031,0.258-0.008,0.273,0.06c0.006,0.023,0.001,0.043-0.007,0.06 c-0.009,0.021-0.027,0.039-0.05,0.051l-0.008,0.004c-0.012,0.006-0.024,0.012-0.039,0.016c-0.123,0.034-0.102-0.032-0.131-0.059 c-0.01-0.01-0.022-0.015-0.051-0.01c-0.096,0.018-0.062,0.085-0.062,0.119c0.004,0.091,0.121,0.119,0.252,0.086 c0.113-0.03,0.269-0.12,0.297-0.25c0.001-0.019,0-0.037-0.006-0.057c-0.037-0.156-0.23-0.25-0.524-0.157 c-0.026,0.009-0.055,0.02-0.085,0.03c-0.027,0.012-0.059,0.025-0.089,0.039h-0.005c-0.021,0.012-0.042,0.022-0.062,0.035 l-0.012,0.005c-0.021,0.014-0.044,0.028-0.068,0.044l-0.021,0.017c-0.015,0.012-0.028,0.024-0.046,0.038l-0.021,0.021l-0.033,0.038 l-0.019,0.024c-0.009,0.013-0.019,0.027-0.024,0.042c-0.006,0.008-0.01,0.017-0.013,0.025c-0.007,0.016-0.012,0.033-0.015,0.05 c-0.002,0.007-0.004,0.015-0.004,0.023c-0.002,0.025,0.002,0.05,0.002,0.079c0,0.034,0.008,0.064,0.021,0.093l0.004,0.004 c0.012,0.026,0.03,0.05,0.051,0.07l0.013,0.008c0.021,0.02,0.044,0.038,0.071,0.054l0.035,0.016 c0.023,0.01,0.047,0.021,0.071,0.031l0,0c0.036,0.012,0.069,0.021,0.103,0.03l0.02,0.006c0.077,0.021,0.163,0.032,0.24,0.041 c0.008,0.001,0.018,0.002,0.023,0.003c0.045,0.005,0.09,0.007,0.133,0.007c-0.037,0-0.08,0.006-0.125,0.013l-0.022,0.006 c-0.045,0.008-0.091,0.02-0.14,0.033l-0.021,0.006c-0.046,0.015-0.094,0.03-0.146,0.047c-0.004,0.001-0.008,0.002-0.01,0.004 c-0.052,0.018-0.104,0.036-0.16,0.056l-0.022,0.011c-0.05,0.019-0.103,0.038-0.153,0.059l-0.005,0.001 c-0.048,0.02-0.096,0.039-0.141,0.058l-0.015,0.007c-0.041,0.018-0.08,0.035-0.119,0.052l-0.016,0.007 c-0.066,0.031-0.115,0.058-0.142,0.081c-0.004,0.001-0.007,0.004-0.009,0.006c-0.01,0.011-0.018,0.02-0.014,0.027 c-0.014,0.043,0.174,0.125,0.42,0.225c0.148,0.059,0.318,0.123,0.478,0.174l0.177,0.088c-0.021,0.002-0.044,0.005-0.068,0.008 l-0.008,0.001c-0.029,0.006-0.062,0.013-0.094,0.018c-0.003,0.001-0.008,0.003-0.012,0.003c-0.032,0.009-0.065,0.018-0.1,0.026 c-0.01,0.004-0.021,0.008-0.031,0.012l-0.063,0.022c-0.01,0.006-0.021,0.011-0.032,0.016l-0.05,0.028l-0.028,0.018l-0.039,0.033 l-0.021,0.022c-0.013,0.014-0.021,0.027-0.026,0.042c-0.004,0.007-0.01,0.015-0.013,0.022c-0.01,0.023-0.015,0.049-0.015,0.076 c0,0.029-0.006,0.055-0.002,0.08c0,0.008,0.002,0.016,0.002,0.023c0.004,0.017,0.009,0.034,0.016,0.051 c0.003,0.007,0.008,0.016,0.012,0.024c0.008,0.015,0.017,0.028,0.025,0.041c0.006,0.009,0.01,0.017,0.018,0.024l0.034,0.039 l0.021,0.021c0.019,0.014,0.031,0.025,0.047,0.037l0.021,0.017c0.022,0.016,0.045,0.029,0.066,0.044l0.014,0.007l0.062,0.032 l0.005,0.003c0.029,0.014,0.061,0.026,0.088,0.039c0.031,0.011,0.061,0.021,0.086,0.028c0.042,0.014,0.081,0.022,0.12,0.028 l0.032,0.004c0.027,0.003,0.052,0.004,0.074,0.003c0.013,0.001,0.021,0,0.031-0.001c0.024-0.002,0.047-0.005,0.065-0.01 c0.009-0.002,0.016-0.003,0.024-0.006c0.055-0.019,0.101-0.049,0.131-0.088l0.01-0.013c0.018-0.022,0.029-0.047,0.035-0.073V12.62 c0.031-0.156-0.168-0.274-0.291-0.306c-0.131-0.033-0.248-0.006-0.252,0.084v0.001c0,0.009,0,0.022-0.004,0.035 c-0.002,0.007-0.002,0.013-0.002,0.021l0.002,0.012c0.002,0.009,0.004,0.016,0.01,0.022l0.008,0.009 c0.011,0.009,0.025,0.017,0.049,0.021c0.014,0.003,0.023,0.003,0.031,0c0.061-0.013,0.005-0.108,0.15-0.068 c0.021,0.006,0.037,0.015,0.055,0.024c0.016,0.011,0.031,0.024,0.037,0.039l0.006,0.01c0.006,0.017,0.01,0.035,0.004,0.057 c-0.016,0.068-0.158,0.09-0.273,0.06c-0.035-0.009-0.068-0.019-0.096-0.03c-0.046-0.018-0.083-0.037-0.113-0.058l-0.014-0.008 c-0.027-0.02-0.048-0.041-0.064-0.063l-0.006-0.011c-0.015-0.022-0.023-0.044-0.027-0.066c0-0.003,0-0.006-0.002-0.008 c-0.002-0.025,0.002-0.049,0-0.076c0.004-0.147,0.168-0.26,0.438-0.236c0.089,0.008,0.189,0.032,0.299,0.084 c0.213,0.1,0.426,0.339,0.516,0.633c0.088,0.289,0.117,0.646,0.002,0.896c-0.045,0.124-0.104,0.245-0.178,0.35l-0.043,0.043 c-0.027,0.031-0.058,0.061-0.09,0.088l-0.054,0.042c-0.028,0.023-0.056,0.045-0.087,0.062c-0.02,0.013-0.04,0.024-0.061,0.033 c-0.029,0.017-0.061,0.027-0.09,0.039c-0.021,0.007-0.043,0.014-0.062,0.02c-0.032,0.008-0.064,0.01-0.098,0.012 c-0.021,0.002-0.041,0.005-0.062,0.003c-0.036-0.001-0.07-0.007-0.107-0.018c-0.019-0.005-0.039-0.01-0.058-0.014 c-0.058-0.02-0.11-0.046-0.169-0.081c-0.021-0.014-0.032-0.026-0.053-0.04c-0.033-0.023-0.069-0.048-0.096-0.071 c-0.021-0.018-0.037-0.035-0.051-0.053c-0.025-0.026-0.05-0.053-0.066-0.078c-0.029-0.042-0.053-0.082-0.067-0.119l-0.004-0.008 c-0.029-0.075-0.028-0.133-0.024-0.164c0-0.003,0-0.006,0.002-0.007c0.002-0.005,0.002-0.012,0.004-0.015c0-0.002,0-0.006,0-0.006 c-0.115,0.045-0.213,0.116-0.295,0.197c-0.142,0.149-0.162,0.374,0.023,0.612c0.041,0.053,0.095,0.106,0.16,0.159 c0.199,0.158,0.414,0.214,0.591,0.229c0.175,0.015,0.305-0.011,0.305-0.011c-0.146,0.133-0.36,0.194-0.622,0.256 c-0.258,0.066-0.505,0.176-0.773,0.409c-0.187,0.177-0.228,0.396-0.24,0.559c-0.008,0.169,0.033,0.299,0.033,0.299 c-0.076,0.064-0.113,0.157-0.129,0.26c-0.025-0.007-0.049-0.011-0.073-0.012c-0.074-0.008-0.146,0.003-0.212,0.039 c0,0-0.418-0.365-0.881-0.134c-0.332,0.148-0.53,0.36-0.688,0.584c-0.165,0.207-0.296,0.405-0.476,0.501 c0,0,0.005-0.007,0.011-0.02c0.056-0.097,0.239-0.498,0.104-0.908c-0.147-0.444-0.453-0.522-0.713-0.408 c-0.115,0.057-0.236,0.127-0.328,0.235c0,0,0.004,0,0.008,0c0.002-0.001,0.01,0,0.016,0c0.002,0,0.005,0,0.008,0.001 c0.035,0.003,0.1,0.016,0.17,0.065c0.035,0.026,0.072,0.06,0.108,0.107c0.015,0.019,0.026,0.04,0.041,0.063 c0,0.002,0.003,0.007,0.006,0.011c0.017,0.025,0.028,0.048,0.043,0.077c0.005,0.016,0.013,0.034,0.017,0.05 c0.016,0.041,0.03,0.078,0.043,0.126c0.012,0.045,0.013,0.082,0.015,0.122v0.01c0.008,0.096-0.005,0.184-0.035,0.266 c-0.077,0.195-0.256,0.348-0.481,0.455c-0.004,0.003-0.006,0.004-0.008,0.006c-0.064,0.029-0.133,0.062-0.207,0.076 c-0.076,0.018-0.156,0.031-0.236,0.04c-0.582,0.09-1.406-0.299-1.582-0.745c-0.021-0.051-0.035-0.1-0.047-0.147 c-0.002-0.015-0.004-0.026-0.006-0.041c-0.007-0.034-0.01-0.064-0.01-0.096c0-0.013-0.001-0.025-0.001-0.036 c0.002-0.04,0.007-0.077,0.017-0.11v-0.001c0.008-0.033,0.022-0.065,0.037-0.095l0.015-0.024c0.014-0.021,0.028-0.04,0.043-0.058 c0.005-0.007,0.01-0.014,0.017-0.019c0.069-0.07,0.161-0.108,0.258-0.112c0.028,0.001,0.055,0.004,0.082,0.009l0.014,0.002 c0.029,0.008,0.055,0.017,0.076,0.031c0.02,0.011,0.037,0.026,0.053,0.042l0.014,0.017c0.012,0.014,0.021,0.029,0.03,0.046 l0.014,0.025c0.007,0.02,0.015,0.04,0.021,0.063c0.004,0.009,0.007,0.018,0.01,0.027c0.007,0.034,0.014,0.07,0.018,0.112 c0.01,0.119-0.051,0.254-0.135,0.256c-0.029,0.001-0.051-0.008-0.068-0.018c-0.024-0.014-0.043-0.032-0.054-0.057L25.938,17.1 c-0.005-0.011-0.009-0.025-0.011-0.039c-0.018-0.131,0.061-0.101,0.1-0.121c0.014-0.008,0.023-0.02,0.023-0.047 c0-0.097-0.092-0.082-0.137-0.081c-0.117,0.002-0.174,0.119-0.155,0.252c0.019,0.116,0.099,0.276,0.243,0.312 c0.021,0.006,0.043,0.008,0.065,0.007c0.188-0.007,0.341-0.173,0.31-0.485c-0.002-0.028-0.008-0.06-0.014-0.091 c-0.005-0.029-0.014-0.063-0.023-0.093v-0.006c-0.008-0.021-0.016-0.044-0.024-0.067l-0.004-0.01 c-0.011-0.023-0.022-0.048-0.037-0.074l-0.015-0.024c-0.012-0.016-0.021-0.032-0.034-0.051l-0.021-0.024 c-0.015-0.014-0.026-0.029-0.041-0.041l-0.026-0.021c-0.017-0.011-0.032-0.021-0.05-0.033c-0.01-0.005-0.021-0.012-0.03-0.016 c-0.021-0.01-0.042-0.018-0.063-0.022c-0.01-0.004-0.021-0.008-0.029-0.01c-0.034-0.007-0.07-0.011-0.109-0.011 c-0.048,0.001-0.094,0.009-0.135,0.021l-0.006,0.005c-0.039,0.013-0.076,0.029-0.109,0.051l-0.013,0.012 c-0.03,0.021-0.06,0.042-0.087,0.07l-0.026,0.036c-0.019,0.022-0.039,0.04-0.055,0.064h-0.001c-0.02,0.029-0.039,0.062-0.057,0.094 c-0.004,0.006-0.008,0.012-0.011,0.019c-0.037,0.073-0.063,0.151-0.082,0.231c-0.003,0.009-0.006,0.019-0.009,0.026 c-0.01,0.043-0.016,0.088-0.021,0.132c0.006-0.037,0.002-0.08-0.002-0.125l-0.006-0.023c-0.006-0.046-0.016-0.092-0.027-0.14 l-0.008-0.022c-0.015-0.046-0.031-0.094-0.047-0.146c-0.002-0.005-0.003-0.009-0.004-0.012c-0.021-0.05-0.042-0.104-0.064-0.158 l-0.012-0.023c-0.023-0.052-0.049-0.103-0.072-0.156L25,16.258c-0.025-0.049-0.053-0.097-0.076-0.142l-0.01-0.015 c-0.023-0.042-0.049-0.081-0.072-0.12l-0.012-0.016c-0.045-0.066-0.088-0.116-0.125-0.145c-0.003-0.004-0.008-0.006-0.011-0.007 c-0.017-0.012-0.032-0.019-0.045-0.017c-0.136-0.019-0.562,0.759-0.599,1.189c-0.003,0.028-0.003,0.056,0.001,0.081 c-0.005-0.045-0.012-0.091-0.021-0.135c-0.01-0.042-0.021-0.082-0.034-0.122l-0.003-0.008c-0.011-0.028-0.023-0.059-0.036-0.09 L23.954,16.7c-0.015-0.031-0.031-0.062-0.05-0.091l-0.02-0.03l-0.042-0.057c-0.009-0.01-0.017-0.019-0.027-0.03l-0.045-0.049 l-0.032-0.029l-0.052-0.037l-0.036-0.021c-0.02-0.012-0.041-0.02-0.063-0.025l-0.034-0.013c-0.034-0.01-0.07-0.016-0.11-0.017 c-0.039,0-0.075,0.004-0.109,0.011c-0.011,0.002-0.021,0.006-0.03,0.01c-0.022,0.005-0.044,0.013-0.063,0.021 c-0.012,0.004-0.021,0.011-0.031,0.016c-0.018,0.011-0.034,0.021-0.05,0.033c-0.009,0.008-0.018,0.013-0.026,0.021 c-0.014,0.012-0.028,0.027-0.042,0.041l-0.02,0.024c-0.015,0.019-0.024,0.034-0.036,0.051l-0.014,0.024 c-0.014,0.025-0.025,0.051-0.037,0.073l-0.005,0.013l-0.022,0.065l-0.002,0.006c-0.01,0.03-0.02,0.063-0.023,0.093 c-0.005,0.032-0.009,0.063-0.014,0.091c-0.005,0.044-0.004,0.085-0.002,0.123l0.005,0.035c0.003,0.027,0.008,0.052,0.015,0.074 c0.001,0.011,0.005,0.021,0.01,0.031c0.008,0.023,0.018,0.043,0.027,0.062l0.012,0.022c0.035,0.052,0.08,0.09,0.132,0.111 l0.017,0.007c0.03,0.011,0.062,0.019,0.094,0.02c0.185,0.005,0.291-0.188,0.31-0.318c0.018-0.133-0.039-0.25-0.154-0.252h-0.001 c-0.013-0.001-0.028-0.001-0.045-0.001c-0.009,0-0.017,0.001-0.026,0.004l-0.015,0.002c-0.011,0.004-0.02,0.01-0.025,0.016 c-0.004,0.004-0.008,0.006-0.01,0.01c-0.008,0.011-0.015,0.028-0.015,0.051c0,0.014,0.003,0.022,0.007,0.03 c0.028,0.054,0.136-0.017,0.115,0.138c-0.002,0.021-0.01,0.039-0.019,0.057c-0.01,0.016-0.021,0.03-0.039,0.04l-0.01,0.009 c-0.02,0.009-0.04,0.016-0.067,0.016c-0.083-0.002-0.144-0.137-0.133-0.257c0.002-0.035,0.007-0.068,0.013-0.099 c0.01-0.049,0.026-0.088,0.043-0.121l0.008-0.016c0.018-0.03,0.039-0.055,0.063-0.074l0.012-0.009 c0.026-0.018,0.052-0.032,0.082-0.04c0.002,0,0.006-0.001,0.009-0.004c0.032-0.007,0.065-0.011,0.101-0.011 c0.197,0.004,0.377,0.166,0.384,0.433c0.002,0.088-0.017,0.193-0.063,0.307c-0.096,0.241-0.383,0.464-0.719,0.605l-0.243,0.084 c-0.212,0.06-0.429,0.085-0.621,0.056c-0.139-0.018-0.28-0.037-0.403-0.097l-0.055-0.027c-0.04-0.019-0.078-0.039-0.114-0.062 c-0.021-0.015-0.04-0.027-0.06-0.041c-0.031-0.021-0.062-0.042-0.089-0.066c-0.019-0.016-0.036-0.032-0.053-0.05 c-0.024-0.023-0.047-0.05-0.068-0.075l-0.038-0.057c-0.02-0.029-0.032-0.059-0.045-0.089c-0.009-0.021-0.02-0.039-0.024-0.062 c-0.011-0.034-0.016-0.071-0.02-0.107c-0.002-0.019-0.005-0.04-0.007-0.058c-0.001-0.059,0.006-0.118,0.021-0.184 c0.006-0.023,0.015-0.039,0.021-0.062c0.013-0.04,0.023-0.081,0.038-0.115c0.012-0.025,0.024-0.044,0.036-0.063 c0.018-0.033,0.037-0.065,0.057-0.09c0.033-0.043,0.068-0.076,0.101-0.101l0.008-0.004c0.069-0.05,0.131-0.062,0.167-0.065 l0.009-0.001c0.006,0,0.013-0.001,0.016,0c0.003,0,0.008-0.001,0.008-0.001c-0.092-0.107-0.214-0.178-0.329-0.234 c-0.213-0.095-0.453-0.058-0.617,0.2c-0.037,0.059-0.069,0.128-0.096,0.208c-0.158,0.47,0.114,0.928,0.114,0.928 c-0.179-0.096-0.312-0.294-0.475-0.501c-0.157-0.225-0.355-0.436-0.687-0.583c-0.464-0.232-0.883,0.133-0.883,0.133 c-0.079-0.045-0.167-0.047-0.256-0.03l-0.034-0.023c-0.003-0.017-0.006-0.033-0.012-0.048c-0.021-0.073-0.055-0.137-0.113-0.186 c0,0,0.041-0.13,0.035-0.299c-0.014-0.163-0.055-0.382-0.241-0.559c-0.269-0.233-0.516-0.343-0.774-0.409 c-0.261-0.063-0.475-0.124-0.62-0.257c0,0,0.008,0.001,0.022,0.004c0.108,0.018,0.53,0.056,0.871-0.221 c0.355-0.291,0.355-0.591,0.187-0.771c-0.084-0.081-0.182-0.152-0.298-0.198c0,0,0.001,0.005,0.001,0.007 c0.003,0.003,0.003,0.009,0.005,0.015c0,0,0.001,0.003,0,0.005c0.005,0.032,0.006,0.091-0.024,0.167 c-0.017,0.04-0.039,0.083-0.072,0.129c-0.013,0.019-0.029,0.036-0.046,0.056c-0.002,0.002-0.006,0.006-0.009,0.01 c-0.02,0.021-0.036,0.04-0.061,0.063c-0.013,0.009-0.027,0.021-0.042,0.03c-0.034,0.027-0.064,0.054-0.106,0.081 c-0.037,0.023-0.074,0.036-0.111,0.053L16.99,14.33c-0.091,0.039-0.178,0.059-0.262,0.055c-0.201-0.007-0.396-0.126-0.559-0.302 l-0.007-0.006c-0.051-0.05-0.08-0.112-0.116-0.174c-0.034-0.067-0.066-0.137-0.094-0.208c-0.113-0.252-0.083-0.608,0.003-0.896 c0.09-0.294,0.304-0.534,0.516-0.634c0.05-0.022,0.096-0.039,0.142-0.053c0.015-0.003,0.026-0.007,0.04-0.011 c0.032-0.008,0.063-0.014,0.095-0.017c0.012-0.002,0.025-0.003,0.036-0.005c0.04-0.003,0.077-0.003,0.111,0l0.002-0.001 c0.033,0.004,0.065,0.011,0.096,0.019l0.023,0.008c0.021,0.008,0.04,0.016,0.06,0.025c0.006,0.003,0.013,0.007,0.018,0.01 c0.071,0.043,0.111,0.105,0.115,0.178c-0.002,0.023-0.002,0.043-0.002,0.063v0.012c-0.004,0.021-0.009,0.041-0.02,0.062 c-0.007,0.015-0.02,0.031-0.033,0.045l-0.014,0.014c-0.013,0.012-0.025,0.022-0.041,0.032l-0.023,0.015 c-0.018,0.011-0.036,0.021-0.058,0.029l-0.025,0.012c-0.032,0.014-0.067,0.025-0.108,0.035c-0.114,0.031-0.258,0.009-0.274-0.059 c-0.005-0.023-0.001-0.043,0.007-0.061c0.008-0.021,0.027-0.038,0.05-0.051l0.008-0.003c0.011-0.006,0.024-0.013,0.039-0.016 c0.124-0.035,0.101,0.031,0.13,0.06c0.01,0.009,0.024,0.014,0.051,0.009c0.097-0.018,0.064-0.085,0.063-0.119 c-0.005-0.091-0.121-0.119-0.252-0.086c-0.113,0.029-0.269,0.12-0.297,0.25c-0.001,0.019,0,0.037,0.005,0.056 c0.038,0.157,0.231,0.25,0.525,0.157c0.026-0.008,0.055-0.019,0.086-0.028c0.028-0.013,0.058-0.026,0.088-0.039l0.005-0.002 c0.021-0.011,0.042-0.023,0.063-0.034l0.01-0.006c0.021-0.014,0.044-0.027,0.068-0.044l0.021-0.017 c0.015-0.012,0.028-0.023,0.046-0.037l0.021-0.021l0.034-0.039l0.018-0.024c0.009-0.013,0.017-0.026,0.026-0.042 c0.004-0.008,0.008-0.017,0.011-0.024c0.007-0.016,0.012-0.033,0.015-0.05c0.002-0.008,0.004-0.016,0.004-0.023 c0.002-0.025-0.002-0.051-0.002-0.079c0-0.034-0.008-0.065-0.021-0.094l-0.004-0.003c-0.012-0.026-0.03-0.051-0.051-0.071 l-0.012-0.008c-0.021-0.019-0.044-0.037-0.072-0.052l-0.035-0.017c-0.023-0.011-0.046-0.021-0.071-0.031v-0.001 c-0.036-0.01-0.069-0.021-0.101-0.03l-0.021-0.005c-0.077-0.02-0.162-0.032-0.239-0.041c-0.009-0.002-0.018-0.003-0.025-0.004 c-0.044-0.004-0.088-0.006-0.132-0.006c0.037,0,0.079-0.007,0.124-0.014l0.023-0.005c0.045-0.008,0.091-0.021,0.14-0.033 l0.021-0.006c0.047-0.015,0.094-0.03,0.146-0.047c0.005-0.001,0.009-0.002,0.012-0.003c0.05-0.02,0.104-0.037,0.158-0.058 l0.023-0.009c0.05-0.021,0.103-0.04,0.155-0.061h0.003c0.048-0.021,0.096-0.039,0.142-0.059l0.014-0.005 c0.042-0.019,0.08-0.037,0.119-0.053l0.016-0.007c0.065-0.031,0.115-0.058,0.141-0.08c0.004-0.003,0.007-0.006,0.009-0.007 c0.01-0.011,0.017-0.02,0.014-0.028c0.013-0.043-0.174-0.124-0.42-0.225c-0.245-0.097-0.547-0.214-0.762-0.242 c-0.028-0.004-0.055-0.005-0.08-0.005c0.045,0,0.09-0.003,0.135-0.007c0.039-0.005,0.078-0.01,0.121-0.016l0.009-0.001 c0.029-0.006,0.062-0.012,0.095-0.018c0.001,0,0.006-0.001,0.01-0.003c0.032-0.009,0.065-0.018,0.1-0.026 c0.01-0.003,0.021-0.007,0.032-0.011l0.057-0.019c0.011-0.005,0.021-0.011,0.033-0.016l0.049-0.027l0.029-0.019l0.038-0.033 l0.021-0.021c0.012-0.013,0.021-0.028,0.027-0.042c0.004-0.008,0.009-0.015,0.012-0.023c0.01-0.022,0.016-0.048,0.016-0.076 c0-0.029,0.005-0.054,0.002-0.079c0-0.009-0.003-0.017-0.004-0.024c-0.003-0.017-0.008-0.033-0.015-0.05 c-0.003-0.008-0.007-0.017-0.011-0.024c-0.008-0.015-0.017-0.029-0.026-0.042c-0.005-0.009-0.01-0.017-0.018-0.024l-0.034-0.038 l-0.021-0.021c-0.018-0.014-0.03-0.026-0.046-0.038l-0.021-0.017c-0.023-0.016-0.046-0.029-0.067-0.043l-0.013-0.008l-0.061-0.034 l-0.005-0.002c-0.03-0.014-0.06-0.026-0.088-0.039c-0.03-0.011-0.06-0.021-0.086-0.03c-0.042-0.013-0.081-0.021-0.12-0.027 l-0.033-0.003c-0.027-0.004-0.051-0.004-0.074-0.004c-0.013,0-0.022,0-0.032,0.002c-0.024,0.001-0.046,0.005-0.065,0.01 c-0.009,0.002-0.015,0.003-0.023,0.005c-0.057,0.019-0.102,0.05-0.132,0.088l-0.01,0.014c-0.017,0.022-0.03,0.047-0.036,0.073 v0.001c-0.031,0.156,0.168,0.274,0.292,0.306c0.131,0.033,0.247,0.006,0.252-0.085v-0.001c0-0.009,0.001-0.022,0.005-0.034 c0.001-0.007,0-0.014,0-0.021v-0.013c-0.002-0.008-0.006-0.016-0.012-0.022l-0.007-0.009c-0.01-0.008-0.026-0.017-0.049-0.021 c-0.013-0.001-0.023-0.001-0.031,0c-0.059,0.014-0.005,0.108-0.149,0.069c-0.021-0.007-0.039-0.016-0.056-0.025 c-0.016-0.011-0.03-0.024-0.037-0.039l-0.006-0.01c-0.006-0.017-0.01-0.034-0.004-0.057c0.016-0.067,0.159-0.09,0.274-0.06 c0.035,0.011,0.067,0.02,0.095,0.031c0.046,0.018,0.083,0.037,0.113,0.057l0.014,0.008c0.027,0.02,0.048,0.041,0.064,0.063 l0.007,0.012c0.015,0.021,0.023,0.044,0.027,0.066c0,0.003,0,0.005,0.003,0.009c0.001,0.023-0.003,0.049,0,0.075 c-0.005,0.146-0.169,0.259-0.438,0.237c-0.088-0.009-0.189-0.033-0.299-0.085c-0.212-0.101-0.425-0.34-0.516-0.633 c-0.085-0.289-0.116-0.644-0.001-0.896C16,9.041,16.059,8.92,16.131,8.814l0.042-0.042c0.028-0.031,0.058-0.061,0.09-0.089 l0.054-0.042c0.028-0.022,0.055-0.043,0.087-0.061c0.02-0.013,0.04-0.023,0.061-0.033c0.03-0.016,0.061-0.027,0.089-0.039 c0.021-0.006,0.042-0.013,0.063-0.019c0.032-0.008,0.064-0.011,0.096-0.013c0.021-0.002,0.042-0.004,0.063-0.003 c0.036,0.001,0.07,0.009,0.107,0.018c0.019,0.005,0.041,0.011,0.058,0.014c0.057,0.021,0.112,0.046,0.169,0.082 c0.019,0.013,0.032,0.025,0.051,0.04c0.034,0.022,0.07,0.047,0.097,0.07c0.021,0.019,0.036,0.036,0.05,0.053 c0.026,0.027,0.05,0.054,0.067,0.079c0.029,0.042,0.053,0.083,0.067,0.118l0.004,0.008c0.029,0.075,0.028,0.133,0.024,0.166 c0,0.002,0,0.004-0.001,0.006c-0.002,0.006-0.002,0.011-0.004,0.014c-0.001,0.003-0.001,0.006-0.001,0.006 c0.116-0.045,0.213-0.117,0.297-0.197c0.14-0.15,0.161-0.374-0.025-0.613c-0.041-0.052-0.095-0.106-0.161-0.158 c-0.199-0.158-0.413-0.216-0.59-0.229c-0.175-0.015-0.304,0.012-0.304,0.012c0.146-0.134,0.359-0.195,0.621-0.258 c0.258-0.066,0.505-0.175,0.774-0.408c0.187-0.177,0.228-0.396,0.242-0.56c0.006-0.169-0.035-0.299-0.035-0.299 c0.077-0.063,0.114-0.157,0.13-0.259c0.025,0.007,0.048,0.01,0.073,0.012c0.074,0.007,0.146-0.004,0.212-0.04 c0,0,0.418,0.365,0.881,0.134c0.332-0.147,0.53-0.359,0.688-0.584c0.163-0.206,0.295-0.404,0.474-0.501c0,0-0.004,0.008-0.01,0.021 c-0.055,0.096-0.241,0.497-0.104,0.908c0.147,0.443,0.452,0.521,0.712,0.407c0.115-0.057,0.237-0.127,0.329-0.234 c0,0-0.005,0-0.007-0.001c-0.004,0.002-0.011,0-0.017,0.001c-0.002,0-0.005,0-0.008-0.001c-0.035-0.003-0.099-0.017-0.169-0.066 c-0.036-0.025-0.074-0.059-0.109-0.106c-0.015-0.019-0.027-0.04-0.041-0.063c0-0.002-0.003-0.007-0.006-0.01 c-0.016-0.025-0.029-0.049-0.043-0.078c-0.006-0.014-0.011-0.033-0.017-0.05c-0.015-0.04-0.03-0.078-0.043-0.127 c-0.011-0.043-0.011-0.081-0.013-0.12l0.001-0.012c-0.008-0.096,0.004-0.183,0.035-0.266c0.077-0.194,0.256-0.348,0.481-0.455 c0.003-0.002,0.006-0.003,0.008-0.005c0.065-0.029,0.133-0.062,0.207-0.076c0.077-0.019,0.157-0.031,0.237-0.041 c0.051-0.008,0.104-0.007,0.157-0.008l0.434,0.056c0.444,0.117,0.871,0.393,0.991,0.698c0.021,0.051,0.035,0.1,0.046,0.146 c0.003,0.016,0.006,0.027,0.008,0.042c0.004,0.033,0.008,0.064,0.008,0.096c0,0.012,0,0.024,0.001,0.036 C23.808,5.93,23.803,5.967,23.793,6v0.001c-0.009,0.034-0.023,0.066-0.038,0.095L23.741,6.12c-0.013,0.021-0.027,0.041-0.042,0.059 c-0.006,0.006-0.01,0.014-0.017,0.02c-0.069,0.068-0.161,0.107-0.256,0.109c-0.03,0-0.058-0.002-0.084-0.007l-0.015-0.003 c-0.026-0.007-0.053-0.016-0.075-0.029c-0.019-0.012-0.036-0.027-0.052-0.044L23.188,6.21c-0.01-0.015-0.021-0.029-0.03-0.047 l-0.013-0.025c-0.008-0.019-0.016-0.039-0.021-0.063c-0.004-0.008-0.006-0.017-0.008-0.026c-0.008-0.035-0.015-0.07-0.017-0.112 c-0.012-0.119,0.05-0.254,0.133-0.256c0.029-0.001,0.051,0.008,0.07,0.019c0.023,0.013,0.041,0.03,0.051,0.055l0.003,0.009 c0.005,0.012,0.01,0.024,0.011,0.038c0.018,0.132-0.06,0.102-0.1,0.121c-0.014,0.008-0.023,0.02-0.023,0.047 c0,0.098,0.092,0.082,0.136,0.082c0.117-0.002,0.174-0.119,0.155-0.252c-0.017-0.115-0.098-0.276-0.243-0.312 c-0.021-0.005-0.043-0.008-0.065-0.008c-0.188,0.007-0.341,0.174-0.309,0.487c0.002,0.027,0.006,0.058,0.014,0.09 c0.004,0.03,0.013,0.063,0.022,0.093l0.001,0.005c0.008,0.021,0.016,0.045,0.024,0.067l0.004,0.011 c0.011,0.022,0.022,0.047,0.037,0.074l0.014,0.023c0.012,0.016,0.022,0.033,0.035,0.051l0.021,0.024 c0.014,0.015,0.027,0.029,0.041,0.041l0.026,0.022c0.017,0.01,0.032,0.021,0.051,0.032c0.008,0.006,0.02,0.012,0.03,0.016 c0.019,0.011,0.041,0.018,0.063,0.023c0.009,0.003,0.019,0.008,0.029,0.01c0.034,0.006,0.07,0.011,0.109,0.01 c0.048-0.001,0.094-0.008,0.135-0.021l0.007-0.005c0.038-0.012,0.075-0.028,0.109-0.05l0.012-0.012 c0.031-0.021,0.06-0.043,0.086-0.071l0.027-0.035c0.018-0.022,0.039-0.041,0.055-0.064h0.001c0.02-0.029,0.039-0.062,0.056-0.094 c0.004-0.007,0.008-0.012,0.011-0.02C23.975,6.115,24,6.036,24.02,5.957c0.003-0.009,0.006-0.019,0.009-0.026 c0.004-0.019,0.005-0.038,0.009-0.058l0.016,0.021c0,0.01,0,0.019,0,0.029l0.004,0.025c0.007,0.044,0.018,0.09,0.029,0.139 l0.007,0.021c0.015,0.046,0.03,0.095,0.048,0.146c0,0.005,0.002,0.009,0.003,0.012c0.021,0.051,0.042,0.104,0.064,0.158 l0.012,0.024C24.246,6.5,24.269,6.551,24.293,6.604z M18.143,5.473L18.143,5.473c0.001-0.002,0.004-0.005,0.006-0.008L18.143,5.473 z M24.22,1.093c-0.034,0.046-0.071,0.095-0.105,0.146c-0.001,0.002-0.002,0.003-0.002,0.003c-0.035,0.054-0.066,0.108-0.096,0.161 L24.003,1.43c-0.028,0.054-0.054,0.109-0.077,0.162l-0.005,0.013c-0.02,0.051-0.035,0.101-0.05,0.15l-0.005,0.022 c-0.011,0.049-0.021,0.096-0.022,0.141c-0.002,0.008-0.001,0.017-0.003,0.025c-0.001,0.044,0.002,0.087,0.011,0.123 c-0.012-0.043-0.026-0.086-0.046-0.129l-0.015-0.026c-0.016-0.033-0.033-0.068-0.055-0.102l-0.001-0.001 c-0.026-0.042-0.057-0.08-0.092-0.119c-0.004-0.006-0.011-0.011-0.018-0.018c-0.029-0.03-0.061-0.06-0.095-0.087 c-0.002,0-0.002,0-0.002-0.002c-0.027-0.021-0.06-0.04-0.091-0.056c-0.016-0.01-0.03-0.018-0.046-0.027 c-0.047-0.021-0.097-0.035-0.15-0.049l-0.012-0.004c-0.053-0.01-0.11-0.016-0.173-0.017l-0.009-0.001 c-0.064,0-0.134,0.004-0.204,0.02c-0.058,0.011-0.108,0.024-0.157,0.041c-0.014,0.007-0.028,0.013-0.04,0.018 c-0.031,0.012-0.062,0.024-0.086,0.039c-0.014,0.009-0.027,0.017-0.039,0.024c-0.022,0.015-0.042,0.028-0.06,0.047l-0.031,0.026 c-0.015,0.019-0.028,0.035-0.043,0.053l-0.021,0.028c-0.012,0.021-0.022,0.039-0.029,0.059L22.324,1.81 c-0.011,0.026-0.017,0.055-0.022,0.083l-0.001,0.01c-0.004,0.026-0.008,0.051-0.009,0.075l0.001,0.006 c-0.001,0.031-0.001,0.065,0.004,0.096c0.004,0.033,0.01,0.063,0.017,0.09c0.075,0.294,0.318,0.426,0.547,0.38 c0.029-0.006,0.055-0.014,0.079-0.023c0.17-0.071,0.237-0.251,0.233-0.366c-0.007-0.137-0.111-0.234-0.271-0.203 c-0.06,0.011-0.188,0.021-0.158,0.115c0.004,0.013,0.01,0.021,0.017,0.028c0.054,0.042,0.178-0.054,0.192,0.101 c0.002,0.015-0.001,0.027-0.004,0.042L22.947,2.25c-0.008,0.025-0.024,0.049-0.052,0.066c-0.021,0.017-0.047,0.03-0.084,0.037 c-0.105,0.02-0.223-0.096-0.25-0.212C22.55,2.1,22.546,2.064,22.545,2.03L22.546,2c0.001-0.023,0.004-0.045,0.01-0.065l0.008-0.026 c0.007-0.02,0.018-0.037,0.027-0.053l0.012-0.02c0.019-0.021,0.037-0.041,0.06-0.057c0.027-0.021,0.06-0.035,0.095-0.05 c0.008-0.001,0.014-0.004,0.021-0.008c0.034-0.012,0.073-0.021,0.115-0.029c0.136-0.024,0.276-0.013,0.388,0.036 c0.011,0.004,0.019,0.008,0.026,0.014c0.025,0.013,0.051,0.028,0.072,0.045c0.009,0.006,0.016,0.012,0.023,0.02 c0.027,0.024,0.053,0.051,0.071,0.083v0.001c0.019,0.031,0.031,0.067,0.04,0.107l0.006,0.036c0.005,0.03,0.006,0.062,0.006,0.095 c-0.001,0.014-0.002,0.026-0.003,0.043c-0.005,0.046-0.015,0.096-0.032,0.152c-0.169,0.497-0.99,1.019-1.596,1.214 c-0.087,0.024-0.176,0.042-0.264,0.056c-0.083,0.013-0.162,0.025-0.241,0.037l-0.01,0.002c-0.274,0.03-0.534,0-0.733-0.119 c-0.081-0.049-0.151-0.116-0.207-0.2c-0.001-0.001-0.002-0.004-0.004-0.006c-0.022-0.034-0.048-0.065-0.064-0.104 c-0.021-0.048-0.03-0.088-0.04-0.129c-0.004-0.016-0.011-0.034-0.015-0.051c-0.006-0.033-0.005-0.06-0.006-0.09V2.922 c0-0.025-0.001-0.051,0.004-0.073c0.009-0.06,0.028-0.11,0.053-0.153c0.05-0.083,0.12-0.133,0.159-0.158 c0.003,0,0.008-0.002,0.009-0.004c0.008-0.004,0.014-0.008,0.021-0.01c0.003-0.003,0.009-0.006,0.009-0.006 c-0.182-0.026-0.385-0.027-0.562,0.036c-0.396,0.126-0.678,0.421-0.464,0.84c0.199,0.389,0.65,0.556,0.756,0.593 c0.015,0.005,0.022,0.008,0.022,0.008c-0.217,0.051-0.473-0.015-0.779-0.036c-0.298-0.004-0.662,0.016-1.059,0.244 c-0.567,0.355-0.446,0.89-0.446,0.89c-0.067,0.053-0.111,0.124-0.139,0.2c-0.009,0.025-0.016,0.054-0.022,0.079 c-0.105-0.018-0.214-0.01-0.313,0.048c0,0-0.112-0.081-0.297-0.116c-0.187-0.042-0.437-0.012-0.705,0.194 c-0.379,0.273-0.528,0.625-0.631,0.914c-0.108,0.287-0.125,0.566-0.249,0.759c0,0,0.007-0.144-0.025-0.337 c-0.032-0.192-0.104-0.439-0.27-0.619c-0.06-0.062-0.119-0.107-0.181-0.139c-0.276-0.142-0.575,0.046-0.791,0.342 c-0.124,0.158-0.206,0.365-0.238,0.562c0,0,0.003-0.005,0.006-0.008c0.005-0.005,0.01-0.011,0.018-0.019l0.01-0.007 c0.036-0.035,0.109-0.092,0.205-0.12l0.009-0.002c0.045-0.012,0.097-0.018,0.156-0.009c0.032,0.005,0.068,0.017,0.104,0.03 c0.022,0.007,0.046,0.014,0.071,0.027c0.032,0.017,0.065,0.045,0.099,0.07c0.019,0.015,0.035,0.021,0.054,0.037 c0.049,0.044,0.087,0.092,0.117,0.143c0.011,0.019,0.017,0.037,0.024,0.055c0.018,0.035,0.034,0.073,0.047,0.112 c0.004,0.023,0.01,0.048,0.015,0.073c0.007,0.037,0.014,0.074,0.015,0.113c0,0.025,0,0.054,0,0.079 c0,0.039-0.002,0.078-0.009,0.119C15.11,7.7,15.106,7.728,15.103,7.756c-0.01,0.04-0.021,0.082-0.03,0.125 c-0.008,0.027-0.016,0.052-0.024,0.08c-0.017,0.044-0.037,0.092-0.055,0.139l-0.027,0.064c-0.055,0.149-0.122,0.298-0.203,0.44 c-0.183,0.284-0.415,0.618-0.698,0.904c-0.278,0.284-0.54,0.547-0.801,0.615c-0.065,0.016-0.122,0.025-0.176,0.026 c-0.053,0-0.101-0.007-0.143-0.021c-0.257-0.079-0.328-0.434-0.236-0.761c0.014-0.058,0.041-0.107,0.068-0.152l0.007-0.014 c0.025-0.042,0.055-0.076,0.085-0.107l0.016-0.013c0.031-0.026,0.067-0.048,0.105-0.058l0.016-0.002 c0.04-0.009,0.085-0.012,0.134-0.001c0.029,0.005,0.063,0.017,0.095,0.03c0.108,0.05,0.194,0.196,0.15,0.309 c-0.014,0.037-0.033,0.062-0.052,0.083l-0.012,0.012c-0.02,0.017-0.035,0.03-0.056,0.037c-0.02,0.005-0.04,0.008-0.061,0.003 c-0.154-0.037-0.033-0.161-0.061-0.226c-0.004-0.009-0.012-0.018-0.022-0.024c-0.021-0.011-0.04-0.01-0.055-0.003l-0.013,0.01 c-0.012,0.008-0.021,0.017-0.03,0.028l-0.013,0.024l-0.017,0.036c-0.011,0.024-0.021,0.049-0.025,0.067v0.001v0.001 C12.917,9.589,13,9.721,13.137,9.741c0.136,0.02,0.344-0.061,0.433-0.302V9.438c0.017-0.042,0.027-0.084,0.034-0.128l0.004-0.025 c0.007-0.077,0-0.154-0.026-0.228L13.568,9.03c-0.012-0.022-0.023-0.046-0.039-0.068c-0.005-0.012-0.013-0.022-0.022-0.03 c-0.015-0.022-0.035-0.041-0.054-0.061l-0.026-0.024c-0.032-0.026-0.066-0.049-0.107-0.068c-0.026-0.011-0.054-0.023-0.084-0.033 c-0.03-0.01-0.063-0.016-0.094-0.019l-0.006-0.001c-0.024-0.003-0.048-0.004-0.073-0.005L13.05,8.723 c-0.027,0.002-0.057,0.006-0.086,0.013l-0.03,0.008c-0.022,0.009-0.044,0.015-0.067,0.027l-0.035,0.018 c-0.02,0.013-0.042,0.027-0.062,0.042c-0.012,0.011-0.023,0.021-0.036,0.031c-0.021,0.017-0.041,0.038-0.061,0.062l-0.035,0.041 c-0.02,0.027-0.04,0.06-0.06,0.092c-0.01,0.016-0.017,0.03-0.027,0.047c-0.026,0.05-0.058,0.108-0.077,0.175 c-0.02,0.068-0.032,0.133-0.041,0.199L12.428,9.54c-0.002,0.042-0.005,0.082-0.007,0.121l0.003,0.068 c0.004,0.036,0.007,0.069,0.011,0.104l0.014,0.063c0.008,0.032,0.017,0.063,0.025,0.093c0.004,0.02,0.011,0.037,0.02,0.055 c0.011,0.029,0.024,0.059,0.039,0.086c0.007,0.015,0.015,0.029,0.021,0.042c0.022,0.037,0.046,0.072,0.073,0.104l0.008,0.011 c0.025,0.028,0.048,0.055,0.076,0.078l0.005,0.006c0.036,0.03,0.076,0.057,0.114,0.081c0.042,0.024,0.086,0.046,0.128,0.063 c-0.022-0.011-0.05-0.017-0.078-0.019c-0.215-0.026-0.532,0.11-0.8,0.315c-0.1,0.077-0.187,0.162-0.262,0.247 C11.948,5.639,17.426,1.246,24.22,1.093z M11.833,11.822c0.035,0.039,0.072,0.077,0.113,0.115l0.017,0.014 c0.048,0.042,0.1,0.084,0.153,0.125c0.001,0,0.004,0.001,0.004,0.001c0.054,0.04,0.109,0.076,0.166,0.109l0.025,0.016 c0.055,0.031,0.111,0.06,0.166,0.083c0.005,0.002,0.009,0.002,0.012,0.006c0.052,0.021,0.104,0.038,0.152,0.051l0.023,0.006 c0.05,0.011,0.098,0.019,0.143,0.019c0.007,0.003,0.017,0.001,0.025,0.002c0.044-0.002,0.086-0.007,0.122-0.02 c-0.043,0.016-0.084,0.036-0.126,0.061l-0.026,0.02c-0.032,0.02-0.067,0.042-0.096,0.069L12.705,12.5 c-0.036,0.033-0.071,0.071-0.103,0.114c-0.006,0.006-0.009,0.015-0.014,0.021c-0.026,0.037-0.051,0.077-0.072,0.119 c0,0.001,0,0.001-0.001,0.001c-0.016,0.034-0.029,0.074-0.042,0.112c-0.006,0.02-0.012,0.037-0.02,0.058 c-0.015,0.056-0.024,0.116-0.03,0.181l-0.004,0.016c-0.004,0.064-0.003,0.134,0.005,0.208v0.011 c0.009,0.077,0.023,0.158,0.048,0.24c0.019,0.068,0.05,0.124,0.077,0.178c0.01,0.016,0.019,0.03,0.027,0.045 c0.02,0.032,0.04,0.065,0.06,0.092c0.013,0.015,0.023,0.028,0.035,0.04c0.02,0.024,0.039,0.045,0.061,0.063l0.036,0.03 c0.021,0.016,0.042,0.029,0.063,0.043c0.011,0.006,0.022,0.013,0.034,0.02c0.023,0.01,0.045,0.019,0.066,0.025l0.031,0.01 c0.028,0.008,0.059,0.01,0.088,0.013h0.01c0.026,0,0.05,0,0.075-0.003l0.006-0.002c0.031-0.004,0.063-0.011,0.093-0.02 c0.031-0.01,0.06-0.021,0.085-0.034c0.279-0.136,0.346-0.418,0.248-0.659c-0.012-0.029-0.025-0.058-0.041-0.083 c-0.092-0.179-0.276-0.236-0.391-0.219c-0.136,0.021-0.22,0.152-0.168,0.335c0.021,0.067,0.065,0.209,0.152,0.162 c0.011-0.006,0.018-0.016,0.022-0.023c0.028-0.064-0.094-0.19,0.061-0.228c0.015-0.002,0.028-0.002,0.043,0l0.007-0.001 c0.027,0.005,0.051,0.024,0.076,0.05c0.021,0.021,0.041,0.048,0.056,0.087c0.044,0.113-0.042,0.26-0.15,0.309 c-0.038,0.017-0.074,0.026-0.108,0.032l-0.03,0.002c-0.022,0.003-0.046,0.003-0.066,0L13,13.839 c-0.021-0.005-0.041-0.012-0.059-0.022l-0.022-0.012c-0.026-0.016-0.05-0.034-0.071-0.059c-0.027-0.027-0.051-0.063-0.072-0.102 c-0.005-0.006-0.008-0.014-0.014-0.021c-0.021-0.038-0.04-0.08-0.052-0.129c-0.043-0.157-0.05-0.324-0.015-0.459 c0.002-0.014,0.007-0.024,0.011-0.035c0.01-0.031,0.021-0.061,0.037-0.088c0.004-0.011,0.01-0.021,0.017-0.029 c0.021-0.034,0.044-0.065,0.074-0.09h0.001c0.028-0.023,0.063-0.041,0.102-0.056l0.033-0.009c0.03-0.009,0.062-0.013,0.095-0.015 c0.015,0,0.028,0,0.044,0c0.048,0.001,0.1,0.009,0.157,0.023c0.261,0.067,0.522,0.33,0.801,0.614 c0.283,0.286,0.515,0.62,0.698,0.904c0.047,0.082,0.088,0.167,0.125,0.252c0.038,0.078,0.061,0.163,0.098,0.236l0.004,0.01 c0.113,0.262,0.164,0.527,0.114,0.763c-0.021,0.098-0.061,0.185-0.118,0.263l-0.005,0.007c-0.023,0.032-0.045,0.065-0.076,0.094 c-0.038,0.033-0.075,0.055-0.11,0.078c-0.014,0.01-0.029,0.021-0.044,0.03c-0.029,0.016-0.055,0.021-0.085,0.032l-0.013,0.004 c-0.024,0.009-0.049,0.017-0.073,0.02c-0.063,0.01-0.118,0.003-0.168-0.011c-0.097-0.028-0.17-0.087-0.208-0.121 c-0.002-0.004-0.005-0.007-0.006-0.008c-0.008-0.006-0.014-0.013-0.02-0.018c-0.002-0.003-0.006-0.008-0.006-0.008 c0.032,0.196,0.113,0.404,0.237,0.563c0.266,0.365,0.652,0.56,0.972,0.204c0.289-0.319,0.295-0.818,0.295-0.93 c0-0.017,0-0.026,0-0.026c0.125,0.194,0.141,0.473,0.249,0.759c0.103,0.29,0.253,0.644,0.632,0.916 c0.268,0.206,0.518,0.235,0.704,0.194c0.185-0.036,0.297-0.117,0.297-0.117c0.074,0.044,0.154,0.061,0.234,0.057 c0.027,0,0.055-0.005,0.081-0.009c0.021,0.105,0.068,0.207,0.158,0.279c0.001,0-0.12,0.534,0.448,0.891 c0.396,0.228,0.76,0.247,1.058,0.243c0.307-0.021,0.562-0.088,0.78-0.034c-0.001,0-0.55,0.156-0.78,0.6 c-0.037,0.078-0.06,0.148-0.068,0.216c-0.041,0.305,0.211,0.521,0.532,0.624c0.178,0.063,0.382,0.062,0.562,0.036 c0,0-0.005-0.003-0.01-0.005c-0.006-0.003-0.012-0.005-0.02-0.009l-0.008-0.007c-0.042-0.025-0.109-0.075-0.158-0.157l-0.006-0.008 c-0.021-0.039-0.038-0.086-0.048-0.141c-0.006-0.032-0.006-0.068-0.004-0.106c0-0.022-0.001-0.047,0.006-0.075 c0.005-0.035,0.021-0.076,0.036-0.115c0.008-0.021,0.009-0.04,0.019-0.062c0.024-0.061,0.058-0.112,0.098-0.16 c0.014-0.016,0.029-0.028,0.043-0.042c0.027-0.029,0.058-0.057,0.09-0.079c0.019-0.012,0.04-0.024,0.063-0.037 c0.031-0.018,0.063-0.035,0.099-0.05l0.072-0.022c0.036-0.012,0.073-0.021,0.111-0.027c0.026-0.005,0.053-0.009,0.08-0.014 c0.039-0.004,0.081-0.007,0.123-0.008c0.026,0,0.052-0.001,0.08-0.002c0.046,0.004,0.095,0.008,0.144,0.012l0.068,0.008 c0.147,0.027,0.304,0.043,0.453,0.087c0.607,0.195,1.427,0.717,1.597,1.215c0.015,0.049,0.021,0.089,0.027,0.13H23.42v0.363 c-0.097,0.041-0.188,0.087-0.275,0.138c-0.081,0.013-0.166,0.017-0.252,0.001c-0.05-0.01-0.095-0.022-0.137-0.039l-0.012-0.005 c-0.04-0.016-0.073-0.037-0.103-0.06l-0.014-0.014c-0.026-0.025-0.048-0.055-0.063-0.089l-0.005-0.016 c-0.013-0.037-0.021-0.08-0.018-0.13c0.001-0.03,0.006-0.063,0.015-0.099c0.028-0.116,0.145-0.23,0.251-0.212 c0.035,0.007,0.06,0.02,0.081,0.034l0.011,0.01c0.02,0.014,0.031,0.03,0.039,0.05c0.007,0.02,0.013,0.039,0.01,0.06 c-0.016,0.154-0.138,0.06-0.191,0.103c-0.007,0.006-0.013,0.014-0.017,0.026c-0.007,0.023-0.005,0.041,0.004,0.054l0.01,0.012 c0.008,0.009,0.017,0.015,0.028,0.022l0.021,0.007l0.034,0.01c0.021,0.004,0.044,0.008,0.061,0.012 c0.159,0.03,0.264-0.067,0.271-0.203c0.005-0.133-0.084-0.347-0.312-0.389h-0.001c-0.04-0.01-0.079-0.01-0.119-0.006h-0.024 c-0.069,0.01-0.137,0.033-0.198,0.076l-0.021,0.017c-0.02,0.017-0.039,0.032-0.057,0.051c-0.009,0.01-0.017,0.019-0.023,0.028 c-0.016,0.021-0.031,0.043-0.043,0.066l-0.019,0.03c-0.017,0.034-0.033,0.072-0.043,0.116c-0.007,0.027-0.013,0.057-0.017,0.089 c-0.004,0.032-0.005,0.065-0.004,0.097v0.006c0.003,0.022,0.005,0.048,0.007,0.072l0.003,0.013 c0.007,0.028,0.013,0.057,0.022,0.082l0.013,0.029c0.01,0.018,0.019,0.036,0.03,0.058l0.021,0.029 c0.013,0.019,0.027,0.035,0.043,0.053c0.009,0.008,0.02,0.017,0.031,0.027c0.012,0.012,0.028,0.021,0.043,0.033 C16.68,20.516,12.167,16.605,11.833,11.822z"></path> </g> </g></svg>