<svg fill="#01393a" version="1.1" id="Capa_1" xmlns="http://www.w3.org/2000/svg" xmlns:xlink="http://www.w3.org/1999/xlink" viewBox="0 0 215.99 215.99" xml:space="preserve"><g id="SVGRepo_bgCarrier" stroke-width="0"></g><g id="SVGRepo_tracerCarrier" stroke-linecap="round" stroke-linejoin="round"></g><g id="SVGRepo_iconCarrier"> <g> <g> <path d="M206.524,110.271c0.765-4.611-2.052-7.029,0.574-11.096c0,0-9.581,0.161-9.418,9.703 c-3.781-4.121-8.817-3.957-8.817-3.957c3.961,6.847,2.015,9.226,2.046,11.825c0.069,6.201,3.871,7.035,6.982,7.478 c-0.332,0.338-0.569,0.775-0.622,1.276c-1.013,9.692-5.737,18.404-13.289,24.559c-7.562,6.148-17.039,8.965-26.763,7.974 c-7.642-0.786-14.518-4.515-19.359-10.463c-0.295-0.354-0.495-0.791-0.77-1.145c2.853,1.804,6.064,3.032,9.545,3.381 c0.96,0.11,1.909,0.137,2.869,0.137c6.054,0,11.875-1.993,16.632-5.737c4.166-3.285,7.141-7.631,8.664-12.514 c3.19-0.791,8.665-3.434,3.296-11.897c-1.033-1.646-3.48-5.126-3.639-9.598c0,0-13.863,15.198-3.986,20.72 c-1.313,3.854-3.696,7.288-7.003,9.908c-4.62,3.649-10.437,5.326-16.39,4.704c-4.646-0.485-8.828-2.684-11.781-6.217 c-2.109-2.516-3.364-5.501-3.755-8.633c-0.053-1.393-0.116-2.784,0.026-4.188c0-0.016-0.005-0.026,0-0.036 c0.459-3.27,2.125-6.223,4.772-8.316c2.795-2.21,6.328-3.196,9.925-2.843c2.773,0.301,5.263,1.604,7.014,3.718 c1.745,2.083,2.553,4.693,2.278,7.336c-0.211,2.004-1.213,3.817-2.821,5.088c-1.641,1.287-3.687,1.852-5.79,1.662 c-1.155-0.143-2.247,0.754-2.368,1.924c-0.116,1.188,0.743,2.247,1.925,2.363c3.232,0.337,6.396-0.57,8.912-2.579 c2.536-1.999,4.113-4.847,4.435-8.021c0.401-3.829-0.759-7.567-3.253-10.568c-2.484-2.975-5.996-4.836-9.888-5.229 c-4.736-0.524-9.366,0.825-13.052,3.741c-1.788,1.424-3.233,3.122-4.319,5.042c-0.084-0.011-0.147-0.059-0.227-0.059 c-9.34,0-12.651-8.25-12.651-15.335c0-6.523,5.3-11.815,11.828-11.815c4.994,0,9.044,4.05,9.044,9.028 c0,3.736-3.048,6.8-6.803,6.8c-2.763,0-5.01-2.247-5.01-5.007c0-1.205-0.97-2.159-2.151-2.159c-1.202,0-2.162,0.97-2.162,2.159 c0,5.137,4.188,9.331,9.334,9.331c6.117,0,11.106-4.988,11.116-11.124c0-7.354-5.985-13.365-13.362-13.365 c-8.912,0-16.158,7.259-16.158,16.152c0,6.534,2.115,11.881,5.732,15.335h-8.068V98.45c0.438-0.314,0.865-0.63,1.197-1.118 l5.474-8.076c0.332-0.498,0.369-1.076,0.253-1.638c1.044-0.675,2.041-1.447,2.938-2.359c3.338-3.391,5.152-7.95,5.11-12.804 l-0.053-5.513c0-0.728-0.369-1.393-0.986-1.793c-0.596-0.388-1.371-0.454-2.036-0.166c-0.132,0.063-13.964,5.967-22.346,0.3 c-0.989-0.659-2.333-0.393-2.995,0.585c-0.67,0.986-0.406,2.331,0.583,3c7.736,5.218,18.351,2.819,23.499,1.179l0.021,2.468 c0.032,3.715-1.35,7.158-3.876,9.734c-2.198,2.236-5.078,3.488-8.126,3.636h-0.83c-3.057-0.189-6.189-1.368-8.48-3.728 c-2.417-2.5-3.762-5.848-3.794-9.416L95.23,58.285c-0.013-1.34,1.203-2.758,3.335-3.892c2.607-1.389,6.183-2.162,10.072-2.188 c0.063-0.005,0.132-0.005,0.195-0.005c6.286,0,10.314,2.582,10.325,4.324c-0.127,0.564-1.424,1.535-3.364,2.368 c0.137-0.077,0.279-0.164,0.4-0.277c0.896-0.788,0.986-2.148,0.19-3.04c-1.751-1.999-5.521-2.305-9.231-2.447 c-5.094-0.232-7.67,1.231-8.954,2.468c-1.037,1.01-1.598,2.272-1.582,3.56c0.01,1.474,0.88,3.488,4.946,4.648 c2.057,0.572,4.725,0.833,7.333,0.896c5.969-0.063,14.634-3.262,14.597-8.177c-0.042-4.994-6.434-8.812-14.877-8.648 c-4.569,0.037-8.851,0.997-12.06,2.7c-3.66,1.928-5.658,4.68-5.632,7.747l0.119,14.458c0.04,4.683,1.822,9.094,5.012,12.393 c0.799,0.814,1.664,1.55,2.582,2.18c-0.222,0.633-0.195,1.339,0.189,1.915l5.475,8.071c0.329,0.499,0.762,0.823,1.199,1.128 v21.265h-8.079c3.618-3.453,5.725-8.801,5.725-15.335c0-8.904-7.249-16.152-16.158-16.152c-3.567,0-6.921,1.395-9.444,3.916 c-2.521,2.533-3.913,5.888-3.908,9.45c0,6.135,4.983,11.125,11.111,11.125c5.142,0,9.326-4.18,9.326-9.337 c0-1.194-0.965-2.149-2.159-2.149s-2.16,0.984-2.16,2.149c0,2.771-2.247,5.018-5.007,5.018c-3.747,0-6.792-3.04-6.792-6.8 c0-2.407,0.938-4.675,2.647-6.399c1.706-1.701,3.974-2.64,6.392-2.64c6.523,0,11.839,5.303,11.839,11.826 c0,6.971-3.246,15.045-12.264,15.287c-1.086-1.872-2.502-3.549-4.261-4.936c-3.689-2.911-8.316-4.256-13.052-3.741 c-3.895,0.393-7.409,2.254-9.893,5.229c-2.495,3-3.652,6.739-3.256,10.557c0.33,3.175,1.906,6.033,4.443,8.037 c2.523,1.988,5.687,2.911,8.91,2.562c1.189-0.11,2.048-1.181,1.93-2.362c-0.119-1.181-1.189-2.088-2.37-1.919 c-2.112,0.189-4.164-0.364-5.791-1.667c-1.614-1.276-2.618-3.079-2.824-5.083c-0.274-2.647,0.53-5.273,2.272-7.341 c1.756-2.12,4.251-3.417,7.022-3.718c3.591-0.332,7.127,0.644,9.924,2.848c2.65,2.099,4.309,5.041,4.772,8.316 c0,0.01-0.005,0.021,0,0.037c0.148,1.413,0.082,2.815,0.021,4.187c-0.393,3.133-1.651,6.117-3.752,8.638 c-2.948,3.528-7.127,5.738-11.778,6.213c-5.922,0.616-11.76-1.05-16.382-4.704c-3.322-2.616-5.698-6.054-7.003-9.909 c9.875-5.516-3.987-20.719-3.987-20.719c-0.166,4.477-2.603,7.973-3.644,9.603c-5.369,8.458,0.108,11.101,3.298,11.886 c1.524,4.889,4.498,9.239,8.662,12.52c4.762,3.739,10.578,5.743,16.638,5.743c0.949,0,1.912-0.053,2.871-0.143 c3.473-0.349,6.687-1.577,9.542-3.38c-0.274,0.358-0.464,0.785-0.762,1.144c-4.844,5.959-11.717,9.683-19.364,10.463 c-9.682,1.007-19.19-1.825-26.763-7.968c-7.565-6.145-12.285-14.866-13.289-24.559c-0.053-0.512-0.295-0.939-0.62-1.276 c3.116-0.443,6.911-1.266,6.977-7.478c0.032-2.605-1.917-4.994,2.041-11.82c0,0-5.034-0.146-8.817,3.952 c0.171-9.548-9.418-9.703-9.418-9.703c2.634,4.065-0.18,6.486,0.583,11.095C4.57,107.818,0,109.59,0,109.59 c6.004,5.126,4.968,8.021,5.859,10.474c2.07,5.632,5.74,5.357,8.77,4.777c-0.161,0.338-0.264,0.718-0.227,1.123 c1.123,10.843,6.404,20.593,14.866,27.47c7.343,5.959,16.313,9.123,25.634,9.123c1.427,0,2.855-0.079,4.292-0.222 c8.791-0.907,16.699-5.188,22.27-12.034c5.163-6.359,7.707-14.228,7.333-22.338c-0.016-0.506,0.05-1.002-0.005-1.498 c-0.084-0.828-0.295-1.624-0.496-2.42h17.2v8.447c-8.862,1.071-15.768,8.564-15.768,17.703c0,9.894,8.04,17.925,17.927,17.925 c9.891,0,17.922-8.031,17.922-17.925c0-9.139-6.903-16.632-15.763-17.703v-8.447h17.877c-0.2,0.796-0.411,1.592-0.495,2.42 c-0.059,0.512,0.01,0.997,0,1.498c-0.38,8.11,2.162,15.979,7.324,22.338c5.563,6.861,13.479,11.133,22.27,12.034 c1.445,0.143,2.869,0.222,4.298,0.222c9.329,0,18.305-3.175,25.635-9.123c8.458-6.871,13.737-16.627,14.865-27.47 c0.043-0.405-0.068-0.785-0.227-1.123c3.038,0.58,6.703,0.854,8.77-4.777c0.892-2.452-0.132-5.348,5.859-10.474 C215.974,109.569,211.391,107.797,206.524,110.271z M108.844,60.326c-4.003,0.277-7.486-0.928-7.647-1.685 c0.322-0.306,1.587-1.258,4.973-1.258c0.253,0,0.517,0.006,0.793,0.016c4.448,0.174,5.81,0.633,6.179,0.994 c0.563,0.654,1.45,0.865,2.23,0.643C113.558,59.732,111.259,60.31,108.844,60.326z M99.694,161.186 c-3.417-2.468-5.669-6.449-5.669-11c0-4.535,2.252-8.518,5.669-10.99c-1.268,3.006-2.036,6.766-2.036,10.99 C97.659,154.425,98.426,158.185,99.694,161.186z M105.479,162.515c-1.821-2.004-3.499-6.317-3.499-12.329 c0-5.996,1.677-10.315,3.499-12.314V162.515z M115.573,139.169c3.417,2.479,5.669,6.476,5.669,11.011s-2.252,8.532-5.669,11 c1.266-3.011,2.035-6.76,2.035-11S116.849,142.186,115.573,139.169z M113.284,150.18c0,6.012-1.682,10.314-3.49,12.329v-24.653 C111.613,139.854,113.284,144.174,113.284,150.18z"></path> </g> </g> </g></svg>