<svg fill="#ee93b433" version="1.1" id="Capa_1" xmlns="http://www.w3.org/2000/svg" xmlns:xlink="http://www.w3.org/1999/xlink" viewBox="0 0 160.047 160.047" xml:space="preserve"><g id="SVGRepo_bgCarrier" stroke-width="0"></g><g id="SVGRepo_tracerCarrier" stroke-linecap="round" stroke-linejoin="round"></g><g id="SVGRepo_iconCarrier"> <g> <g> <path d="M139.685,117.623c0.11,0.443,0.433,0.755,0.854,0.791c0.422,0.037,0.886-0.194,1.229-0.611c0,0,0.786-0.949,1.646-2.6 c0.833-1.688,1.55-4.208,1.629-7.009c1.107,0.132,2.131,0.048,3.038-0.079c1.909-0.231,3.312-0.49,4.841,1.313 c0.295,0.354,0.765,0.422,1.202,0.169c0.443-0.274,0.812-0.802,0.934-1.43c-0.037-0.143,0.828-3.549-0.132-6.913 c-0.696-2.658-2.378-5.484-5.943-6.106c2.711-4.578,2.368-9.281,2.257-9.492c-0.068-0.518-0.332-0.949-0.732-1.123 c-0.375-0.18-0.807-0.085-1.14,0.236c-2.004,2.041-3.67,2.896-5.01,3.286c-1.328,0.38-2.341,0.29-3.279,0.211 c-0.617-0.063-1.256-0.116-1.92-0.042c-2.958,0.289-4.725,1.244-5.801,2.426c-1.149,1.181-1.725,2.573-2.035,3.791v0.006 c-0.09,0.337-0.127,0.653-0.201,0.991l-4.703-1.424c1.318-0.285,2.505-0.854,3.485-1.729c1.018-0.876,1.804-2.036,2.157-3.502 c0.311-1.028,0.358-2.109,0.211-3.101c-0.175-1.002-0.676-1.936-1.25-2.753c-1.239-1.613-3.096-2.652-5.342-2.879 c-3.718-0.291-7.204,1.655-7.773,4.07c-0.063,0.158-0.105,0.322-0.127,0.48c-0.126,0.833,0.148,1.697,0.812,2.541 c0.822,1.002,1.93,1.825,3.354,2.295c1.182,0.374,2.437,0.395,3.565-0.027c0.785-0.332,1.392-0.864,1.793-1.545 c0.723-0.596,0.854-1.619,0.222-2.347c-0.544-0.611-1.44-0.812-2.247-0.622c-0.369,0.026-0.738,0.105-1.055,0.295 c-0.928,0.564-1.097,1.566-0.39,2.357c0.168,0.201,0.374,0.343,0.601,0.475c-0.611,0.232-1.297,0.254-1.972,0.063 c-0.966-0.295-1.783-0.828-2.305-1.497c-0.522-0.67-0.686-1.398-0.438-2.089c0.475-1.851,2.953-3.222,5.652-2.911 c3.438,0.401,5.98,3.555,4.904,6.697c-0.506,2.015-1.94,3.354-3.712,3.977c-1.772,0.611-3.997,0.506-6.618-0.232 c-0.111-0.047-0.243-0.058-0.343-0.058l-13.258-3.992c-0.611-0.179-1.149-0.095-1.281,0.185c-0.11,0.279,0.29,0.675,0.896,0.892 l13.252,4.624c0.053,0.021,0.095,0.053,0.147,0.074c2.542,0.934,4.414,2.151,5.511,3.718c1.182,1.582,1.324,3.407,0.67,5.39 c-0.427,1.582-1.767,2.621-3.217,3.085c-1.461,0.47-3.111,0.312-4.641-0.527c-2.341-1.318-3.659-3.939-2.942-5.728 c0.321-0.643,0.791-1.176,1.608-1.418s1.767-0.211,2.721,0.127c0.644,0.242,1.208,0.664,1.562,1.213 c-0.253-0.032-0.512-0.027-0.754,0.031c-1.019,0.232-1.414,1.197-1.061,2.141c0.121,0.327,0.364,0.602,0.644,0.834 c0.538,0.616,1.382,1.002,2.22,0.827c1.013-0.163,1.461-1.102,1.208-2.02c0.068-0.791-0.121-1.603-0.575-2.325 c-0.622-0.992-1.629-1.709-2.815-2.1c-1.435-0.453-2.9-0.484-4.093-0.126c-1.022,0.284-1.666,0.87-2.119,1.593 c-0.101,0.126-0.158,0.279-0.222,0.432c-0.501,1.177-0.18,2.669,0.475,4.082c0.644,1.393,1.804,2.816,3.428,3.76 c1.914,1.123,4.219,1.503,6.064,0.85c1.851-0.628,3.67-2.015,4.271-4.129c1.044-2.812,0.343-5.506-1.477-7.516l4.672,1.63 c-0.053,0.158-0.105,0.312-0.158,0.47c-0.844,2.784-2.942,6.865,2.616,11.27c0.527,0.416,1.097,0.711,1.655,0.996 C136.215,111.242,138.272,112.028,139.685,117.623z M132.482,98.849c0.126-0.353,0.242-0.706,0.348-1.018 c0.105-0.332,0.211-0.675,0.316-1.033c0.116-0.549,0.253-1.107,0.38-1.693c0.644-2.479,1.877-4.086,5.716-4.35 c0.501-0.032,0.986,0.047,1.509,0.11c1.761,0.189,4.081,0.638,8.026-2.136c-0.158,0.954-0.433,2.088-0.907,3.259 c-0.232,0.58-0.527,1.192-0.854,1.762c-0.391,0.574-0.844,1.144-1.35,1.688c-0.391,0.39-0.56,1.013-0.422,1.561 c0.137,0.543,0.554,0.907,1.033,0.896c2.595-0.063,4.271,0.949,5.284,2.458c1.055,1.502,1.339,3.448,1.318,4.999 c-1.593-0.749-3.153-0.454-4.662-0.222c-1.308,0.2-2.652,0.358-4.145-0.121c-0.411-0.127-0.896,0.026-1.234,0.416 c-0.337,0.391-0.464,0.955-0.406,1.445c0.396,2.758-0.269,5.426-1.044,7.113c-1.835-4.371-4.113-5.246-5.695-6.001 c-0.49-0.216-0.943-0.411-1.339-0.712C130.224,104.271,131.542,101.792,132.482,98.849z"></path> <path d="M134.285,126.457c0.28-0.443,0.322-0.955,0.116-1.309c-0.2-0.369-0.611-0.559-1.075-0.495 c-5.833,0.717-7.314-0.865-8.786-2.078c-0.464-0.4-0.96-0.822-1.529-1.165c-2.51-1.456-4.546-1.756-6.17-1.492 c-1.635,0.253-2.795,1.213-3.839,1.914c-0.274,0.205-0.527,0.422-0.791,0.633l-2.975-3.924c1.239,0.564,2.61,0.892,3.893,0.717 c1.275-0.158,2.584-0.686,3.817-1.561c1.693-1.34,2.59-3.375,2.61-5.337c-0.095-2.067-1.018-4.028-2.721-5.531 c-1.393-1.234-3.096-1.909-4.646-2.126c-0.791-0.115-1.497-0.084-2.162,0.074c-0.717,0.116-1.328,0.348-1.855,0.754 c-0.116,0.105-0.243,0.201-0.349,0.332c-0.559,0.649-0.812,1.546-0.822,2.553c0.011,1.234,0.475,2.6,1.35,3.818 c0.738,1.012,1.729,1.75,2.869,2.041c0.844,0.221,1.688,0.168,2.437-0.111c0.959-0.031,1.603-0.844,1.497-1.814 c-0.11-0.833-0.706-1.529-1.466-1.846c-0.316-0.2-0.644-0.337-1.013-0.363c-1.065-0.101-1.698,0.728-1.672,1.714 c0.017,0.242,0.09,0.485,0.19,0.717c-0.639-0.185-1.229-0.58-1.65-1.139c-0.606-0.791-0.939-1.688-0.939-2.511 c-0.01-0.833,0.232-1.571,0.802-2.014c1.571-1.14,4.346-0.817,6.328,1.012c2.637,2.421,2.616,6.281,0.053,8.332 c-1.725,1.182-3.544,1.572-5.337,1.029c-1.846-0.586-3.58-2.004-5.273-4.146c-0.084-0.101-0.168-0.179-0.273-0.253l-8.375-11.017 c-0.39-0.511-0.906-0.78-1.149-0.585c-0.253,0.18-0.137,0.775,0.232,1.292l8.005,11.533c0.021,0.053,0.042,0.1,0.074,0.137 c1.508,2.257,2.362,4.393,2.288,6.238c-0.073,1.819-0.886,3.612-2.604,4.763c-1.351,0.88-2.964,1.144-4.409,0.648 c-1.471-0.538-2.731-1.678-3.491-3.26c-0.58-1.229-0.717-2.557-0.527-3.681c0.19-1.128,0.729-2.015,1.498-2.626 c0.585-0.422,1.34-0.49,2.141-0.18c0.802,0.307,1.582,0.929,2.142,1.725c0.385,0.564,0.596,1.266,0.559,1.904 c-0.179-0.169-0.39-0.332-0.633-0.422c-0.98-0.443-1.898,0.016-2.141,1.055c-0.085,0.343-0.042,0.717,0.037,1.07 c0.084,0.828,0.563,1.629,1.302,1.951c0.887,0.391,1.825-0.031,2.173-0.896c0.549-0.549,0.844-1.355,0.886-2.236 c0.063-1.202-0.348-2.378-1.075-3.385c-0.886-1.213-2.036-2.057-3.186-2.421c-1.013-0.38-1.94-0.401-2.7-0.037 c-0.137,0.079-0.284,0.153-0.411,0.248c-1.018,0.822-1.761,1.93-2.024,3.544c-0.274,1.561-0.143,3.412,0.59,5.109 c0.907,2.078,2.479,3.555,4.388,4.229c1.946,0.771,4.082,0.332,5.906-0.807c1.245-0.796,2.078-1.988,2.616-3.127 c0.548-1.192,0.78-2.41,0.574-3.823l2.811,4.065c-0.121,0.101-0.242,0.195-0.374,0.301c-1.208,0.791-2.811,1.751-3.854,3.428 c-1.05,1.571-1.667,3.739-0.686,7.172c0.179,0.638,0.479,1.218,0.765,1.767c0.785,1.672,2.057,3.644-0.111,8.954 c-0.163,0.411-0.095,0.839,0.232,1.129c0.332,0.29,0.844,0.385,1.371,0.253c0,0,0.311-0.042,0.796-0.248 c0.501-0.2,1.208-0.517,2.03-0.971c1.646-0.917,3.812-2.325,5.411-4.719c0.791,0.738,1.682,1.244,2.499,1.708 c1.688,0.971,3.012,1.614,3.153,3.924c0.021,0.458,0.349,0.791,0.887,0.844c0.517,0.063,1.139-0.143,1.603-0.564 c0.143-0.026,2.61-2.553,3.929-5.7c1.07-2.442,1.229-5.881-1.26-8.438C131.865,130.786,134.132,126.583,134.285,126.457z M124.076,131.065c-0.549,0.116-1.018,0.532-1.224,1.05c-0.222,0.512-0.116,1.028,0.296,1.318 c4.377,2.963,2.784,7.256,0.959,9.893c-0.864-1.54-2.268-2.173-3.617-2.89c-1.191-0.633-2.384-1.308-3.301-2.579 c-0.264-0.354-0.749-0.517-1.261-0.416c-0.517,0.115-0.971,0.453-1.191,0.906c-1.197,2.627-3.392,4.219-5.016,5.158 c1.087-4.609-0.222-6.592-1.06-8.158c-0.27-0.459-0.522-0.886-0.675-1.36c-1.52-4.71,0.827-6.233,3.438-7.874 c0.322-0.227,0.586-0.447,0.865-0.653c0.253-0.222,0.543-0.459,0.817-0.701c0.422-0.364,0.865-0.749,1.34-1.103 c2.046-1.551,3.817-2.325,7.172-0.152c0.422,0.269,0.785,0.611,1.17,0.985c1.276,1.166,3.012,3.012,7.726,2.995 C129.254,128.924,126.918,130.474,124.076,131.065z"></path> <path d="M74.825,159.579c0.377,0.337,1.015,0.527,1.619,0.453c0.129-0.042,3.607-0.321,6.502-2.268 c2.296-1.471,4.448-3.934,3.941-7.509c2.563,0.574,4.989,0.396,6.761,0.121c1.762-0.295,2.848-0.886,2.975-0.918 c0.484-0.211,0.801-0.606,0.854-1.028c0.063-0.416-0.168-0.791-0.569-1.007c-5.1-2.652-5.421-5.041-5.885-6.803 c-0.132-0.611-0.285-1.239-0.56-1.867c-1.191-2.727-2.646-4.129-4.113-4.804c-1.466-0.654-2.966-0.859-4.219-0.76 c-0.345,0.011-0.675,0.063-1.015,0.101l-0.113-4.915c1.339,2.294,3.712,3.981,6.729,3.792c1.087-0.043,2.131-0.274,3.032-0.738 c0.881-0.543,1.65-1.239,2.221-2.057c1.181-1.646,1.571-3.729,1.075-5.991c-0.411-1.856-1.371-3.306-2.521-4.461 c-1.16-1.123-2.457-1.788-3.718-1.667l-0.485,0.032c-0.838,0.11-1.582,0.644-2.178,1.529c-0.701,1.05-1.129,2.457-1.145,3.923 c-0.011,1.229,0.369,2.495,1.118,3.359c0.543,0.639,1.239,1.07,2.015,1.234c0.785,0.512,1.813,0.338,2.314-0.48 c0.412-0.717,0.327-1.677-0.1-2.356c-0.143-0.338-0.332-0.639-0.606-0.892c-0.802-0.723-1.83-0.585-2.362,0.322 c-0.116,0.216-0.222,0.464-0.264,0.722c-0.401-0.521-0.644-1.171-0.665-1.877c-0.021-1.007,0.243-1.931,0.718-2.626 c0.484-0.707,1.117-1.065,1.855-1.034c1.898-0.179,3.966,1.841,4.493,4.482c0.327,1.714-0.031,3.354-0.917,4.62 c-0.876,1.323-2.32,2.088-3.935,2.088c-1.033,0-1.982-0.116-2.815-0.532c-0.823-0.433-1.529-1.019-2.112-1.788 c-1.149-1.508-1.717-3.67-1.825-6.381c-0.005-0.121-0.031-0.248-0.076-0.358l-0.284-13.832c-0.011-0.644-0.288-1.14-0.578-1.118 c-0.309-0.031-0.566,0.475-0.577,1.118l-0.303,14.038c-0.006,0.058-0.027,0.11-0.027,0.158c-0.107,2.71-0.685,4.861-1.827,6.381 c-0.567,0.764-1.279,1.354-2.109,1.787c-0.833,0.406-1.772,0.538-2.813,0.527c-1.637,0.021-3.075-0.749-3.937-2.083 c-0.896-1.261-1.242-2.896-0.941-4.608c0.541-2.653,2.603-4.673,4.499-4.493c0.746-0.021,1.389,0.332,1.864,1.033 c0.485,0.696,0.749,1.635,0.717,2.632c-0.021,0.701-0.253,1.35-0.654,1.872c-0.053-0.259-0.134-0.507-0.274-0.723 c-0.551-0.907-1.55-1.039-2.365-0.321c-0.282,0.253-0.459,0.553-0.594,0.886c-0.422,0.68-0.53,1.646-0.108,2.362 c0.496,0.812,1.495,0.991,2.299,0.485c0.783-0.169,1.463-0.597,2.025-1.239c0.762-0.865,1.124-2.136,1.118-3.359 c-0.01-1.461-0.442-2.863-1.144-3.924c-0.583-0.886-1.334-1.418-2.17-1.519c-0.153-0.031-0.33-0.021-0.488-0.042 c-1.258-0.121-2.571,0.543-3.715,1.666c-1.16,1.155-2.112,2.616-2.521,4.473c-0.509,2.257-0.098,4.35,1.073,5.979 c0.58,0.812,1.34,1.514,2.226,2.057c0.902,0.464,1.938,0.696,3.03,0.738c2.993,0.19,5.336-1.466,6.673-3.723l-0.108,4.946 c-0.161-0.006-0.335-0.011-0.496-0.016c-1.438-0.111-3.333-0.026-5.107,0.527c-1.782,0.617-3.565,2.13-4.796,5.469 c-0.232,0.627-0.334,1.26-0.422,1.882c-0.334,1.841-0.475,4.15-5.329,7.125c-0.385,0.237-0.562,0.627-0.49,1.049 c0.105,0.422,0.469,0.791,0.965,0.997c0,0,0.292,0.116,0.793,0.274c0.525,0.147,1.248,0.405,2.205,0.479 c1.867,0.174,4.453,0.237,7.132-0.627c0.222,1.049,0.623,1.967,1.016,2.811c0.799,1.756,1.474,3.037,0.242,5.025 C74.36,158.772,74.434,159.23,74.825,159.579z M73.825,147.65c-2.5,1.329-5.215,1.35-7.085,1.224 c3.596-3.153,3.71-5.511,3.937-7.288c0.063-0.532,0.114-1.018,0.264-1.487c0.773-2.399,1.859-3.507,3.122-3.949 c1.252-0.533,2.742-0.496,4.282-0.411c0.361,0.01,0.741,0.021,1.076,0.036c0.335,0.011,0.696,0.006,1.062-0.058 c0.562-0.074,1.139-0.132,1.732-0.158c1.271-0.074,2.389,0.068,3.369,0.69c0.976,0.575,1.804,1.582,2.516,3.412 c0.185,0.459,0.264,0.944,0.354,1.466c0.354,1.74,0.644,4.082,4.493,7.014c-1.894,0.227-4.662,0.412-7.314-0.917 c-0.506-0.253-1.139-0.222-1.613,0.068c-0.485,0.306-0.686,0.796-0.538,1.261c0.844,2.468,0.4,4.355-0.71,5.764 c-1.104,1.413-2.845,2.399-4.329,2.821c0.211-1.735-0.546-3.144-1.221-4.509c-0.588-1.203-1.171-2.432-1.16-3.998 c0-0.438-0.319-0.844-0.788-1.049C74.83,147.381,74.268,147.402,73.825,147.65z"></path> <path d="M52.948,123.629c0.562,1.16,1.384,2.368,2.647,3.169c1.835,1.145,3.942,1.577,5.896,0.802 c1.917-0.675,3.488-2.151,4.39-4.229c0.757-1.697,0.865-3.549,0.591-5.109c-0.282-1.608-1.018-2.721-2.02-3.533 c-0.137-0.105-0.288-0.18-0.422-0.259c-0.772-0.363-1.685-0.343-2.695,0.037c-1.144,0.364-2.302,1.224-3.18,2.421 c-0.751,1.007-1.142,2.193-1.081,3.385c0.042,0.887,0.335,1.688,0.881,2.236c0.346,0.865,1.284,1.292,2.17,0.902 c0.768-0.333,1.237-1.124,1.297-1.941c0.098-0.358,0.119-0.743,0.042-1.086c-0.243-1.033-1.16-1.492-2.139-1.055 c-0.232,0.11-0.453,0.253-0.644,0.427c-0.031-0.627,0.185-1.339,0.567-1.903c0.562-0.802,1.323-1.435,2.138-1.729 c0.799-0.306,1.55-0.243,2.138,0.189c0.783,0.602,1.308,1.487,1.508,2.616c0.187,1.123,0.053,2.446-0.541,3.681 c-0.762,1.582-2.004,2.721-3.488,3.259c-1.458,0.496-3.051,0.232-4.396-0.648c-1.727-1.145-2.555-2.938-2.613-4.762 c-0.077-1.846,0.772-3.977,2.289-6.233c0.071-0.105,0.113-0.222,0.15-0.333l7.918-11.358c0.351-0.538,0.464-1.118,0.232-1.298 c-0.243-0.189-0.762,0.08-1.149,0.58l-8.501,11.17c-0.032,0.042-0.087,0.068-0.113,0.11c-1.68,2.142-3.428,3.555-5.276,4.15 c-1.793,0.538-3.607,0.143-5.329-1.034c-2.586-2.04-2.597-5.906,0.042-8.321c1.994-1.846,4.752-2.156,6.323-1.018 c0.577,0.443,0.828,1.182,0.812,2.015c0,0.812-0.33,1.714-0.941,2.51c-0.422,0.554-1.015,0.949-1.653,1.14 c0.113-0.232,0.174-0.475,0.189-0.728c0.05-0.992-0.583-1.804-1.664-1.698c-0.356,0.021-0.696,0.158-1.015,0.348 c-0.765,0.321-1.382,1.013-1.463,1.856c-0.108,0.971,0.551,1.782,1.498,1.814c0.759,0.295,1.603,0.332,2.434,0.11 c1.139-0.29,2.139-1.023,2.869-2.046c0.875-1.219,1.35-2.584,1.36-3.818c-0.021-1.007-0.277-1.898-0.833-2.547 c-0.114-0.111-0.232-0.227-0.346-0.327c-0.517-0.4-1.139-0.644-1.856-0.765c-0.654-0.143-1.392-0.174-2.159-0.074 c-1.551,0.201-3.262,0.887-4.662,2.126c-1.685,1.508-2.613,3.491-2.705,5.537c0.016,1.956,0.907,4.002,2.608,5.342 c2.447,1.735,5.083,2.077,7.625,0.886l-2.996,3.934c-0.126-0.095-0.266-0.184-0.401-0.284c-1.205-0.796-2.57-2.114-4.416-2.6 c-1.912-0.459-4.148-0.369-7.08,1.587c-0.562,0.369-1.015,0.822-1.458,1.271c-1.371,1.291-2.755,3-8.564,2.673 c-0.464-0.021-0.844,0.19-1.015,0.575c-0.169,0.38-0.092,0.896,0.222,1.334c0,0,0.664,1.018,2.014,2.342 c1.279,1.35,3.449,2.811,6.138,3.681c-0.453,1.007-0.675,1.988-0.875,2.921c-0.398,1.92-0.62,3.375-2.764,4.209 c-0.432,0.158-0.633,0.58-0.551,1.107c0.098,0.532,0.53,1.007,1.052,1.308c0.066,0.031,0.854,0.464,2.081,0.928 c1.226,0.454,2.813,0.96,4.525,1.097c2.766,0.111,5.967-0.633,7.673-3.828c1.664,2.109,3.781,3.275,5.379,4.082 c1.629,0.78,2.792,1.075,2.916,1.07c0.53,0.1,1.015-0.042,1.305-0.338c0.292-0.311,0.334-0.754,0.113-1.154 c-2.521-5.258-1.424-7.283-0.749-8.997c0.242-0.574,0.495-1.171,0.643-1.824c0.641-2.922,0.221-4.794-0.509-6.286 c-0.741-1.481-1.927-2.395-3.024-3.059c-0.303-0.169-0.562-0.354-0.836-0.549l2.813-4.039 C52.204,121.188,52.425,122.438,52.948,123.629z M51.495,133.064c-0.113,0.475-0.335,0.917-0.567,1.397 c-0.728,1.618-1.877,3.681-0.443,8.242c-0.847-0.433-1.856-1.023-2.824-1.825c-0.965-0.807-1.846-1.935-2.576-3.217 c-0.264-0.49-0.789-0.822-1.361-0.854c-0.562-0.032-1.025,0.253-1.181,0.728c-0.756,2.479-2.225,3.739-3.987,4.261 c-1.695,0.475-3.628,0.121-5.112-0.338c1.2-1.275,1.397-2.837,1.648-4.34c0.208-1.297,0.475-2.615,1.403-3.881 c0.253-0.348,0.242-0.85,0-1.329c-0.243-0.453-0.717-0.791-1.216-0.87c-2.797-0.416-5.112-1.851-6.431-3.169 c4.648-0.343,6.188-2.247,7.414-3.518c0.346-0.396,0.686-0.765,1.076-1.044c2.057-1.509,3.607-1.783,4.923-1.45 c1.318,0.348,2.381,1.36,3.683,2.23c0.298,0.222,0.578,0.438,0.854,0.628c0.295,0.189,0.588,0.39,0.917,0.596 c0.464,0.311,0.949,0.622,1.453,0.954C51.329,127.606,52.483,129.256,51.495,133.064z"></path> <path d="M2.739,99.625c-0.211,0.475-0.19,1.129,0.071,1.693c0.032,0.068,0.383,0.896,1.058,1.993 c0.696,1.097,1.814,2.41,3.122,3.518c2.078,1.761,5.091,3.048,8.374,1.45c0.298,2.594,1.086,4.914,1.972,6.476 c0.907,1.529,1.706,2.431,1.793,2.531c0.351,0.39,0.82,0.575,1.237,0.506c0.403-0.073,0.707-0.405,0.788-0.864 c1.042-5.732,3.006-6.65,4.612-7.689c0.546-0.316,1.089-0.648,1.598-1.097c4.503-4.008,3.483-7.229,2.726-9.677 c-0.119-0.321-0.258-0.617-0.382-0.928l4.638-1.619c-1.869,2.015-2.586,4.725-1.54,7.567c0.606,2.114,2.426,3.502,4.271,4.14 c1.848,0.654,4.158,0.264,6.075-0.865c1.617-0.949,2.777-2.362,3.431-3.754c0.646-1.414,0.96-2.906,0.464-4.082 c-0.065-0.143-0.118-0.306-0.211-0.433c-0.453-0.728-1.097-1.312-2.133-1.598c-1.194-0.348-2.658-0.321-4.092,0.132 c-1.194,0.38-2.194,1.107-2.813,2.099c-0.454,0.723-0.643,1.529-0.59,2.32c-0.243,0.923,0.189,1.862,1.221,2.025 c0.833,0.163,1.685-0.211,2.215-0.828c0.274-0.231,0.52-0.517,0.644-0.833c0.334-0.949-0.04-1.909-1.061-2.136 c-0.248-0.058-0.501-0.068-0.762-0.037c0.369-0.543,0.926-0.97,1.571-1.208c0.957-0.332,1.912-0.374,2.713-0.126 c0.799,0.253,1.305,0.77,1.619,1.424c0.712,1.761-0.604,4.388-2.942,5.716c-1.54,0.834-3.193,0.997-4.646,0.544 c-1.44-0.475-2.785-1.519-3.212-3.101c-0.654-1.979-0.514-3.808,0.665-5.379c1.107-1.572,2.979-2.795,5.519-3.719 c0.119-0.042,0.232-0.1,0.33-0.168l13.073-4.557c0.593-0.211,1.015-0.602,0.896-0.891c-0.129-0.274-0.665-0.364-1.284-0.186 l-13.442,4.051c-0.058,0.01-0.108,0-0.145,0.021c-2.608,0.738-4.839,0.844-6.616,0.232c-1.772-0.622-3.214-1.946-3.715-3.966 c-1.081-3.143,1.463-6.307,4.886-6.697c2.713-0.321,5.192,1.055,5.683,2.911c0.231,0.686,0.076,1.419-0.443,2.088 c-0.535,0.67-1.345,1.219-2.317,1.487c-0.675,0.2-1.361,0.169-1.965-0.053c0.222-0.127,0.433-0.285,0.594-0.485 c0.707-0.791,0.546-1.793-0.383-2.352c-0.324-0.19-0.69-0.269-1.049-0.301c-0.81-0.189-1.706,0.011-2.252,0.633 c-0.625,0.718-0.501,1.729,0.222,2.342c0.396,0.68,1.01,1.229,1.793,1.545c1.128,0.427,2.375,0.406,3.564,0.021 c1.427-0.469,2.534-1.286,3.354-2.277c0.665-0.844,0.955-1.709,0.804-2.547c-0.021-0.158-0.071-0.327-0.113-0.475 c-0.567-2.426-4.076-4.372-7.781-4.082c-2.236,0.227-4.121,1.266-5.323,2.885c-0.596,0.801-1.086,1.75-1.271,2.758 c-0.129,1.002-0.079,2.067,0.216,3.096c0.356,1.45,1.139,2.604,2.138,3.485c0.973,0.865,2.138,1.45,3.441,1.725l-4.735,1.439 c-0.045-0.153-0.098-0.316-0.132-0.475c-0.332-1.397-0.912-3.195-2.062-4.704c-1.128-1.514-3.087-2.752-6.637-2.885 c-0.675-0.025-1.318,0.069-1.927,0.164c-0.938,0.143-1.928,0.327-3.267,0.031c-1.371-0.284-3.019-1.022-5.168-2.9 c-0.334-0.295-0.778-0.348-1.139-0.126c-0.366,0.211-0.622,0.675-0.664,1.218c0,0-0.021,0.306-0.021,0.839 c-0.021,0.543,0.053,1.297,0.253,2.22c0.411,1.846,1.065,4.346,2.813,6.613c-0.954,0.543-1.69,1.213-2.375,1.846 c-1.437,1.318-2.436,2.362-4.693,1.771C3.372,98.929,2.96,99.15,2.739,99.625z M10.087,99.809 c0.963-0.933,1.962-1.866,3.462-2.341c0.411-0.132,0.707-0.56,0.778-1.065c0.047-0.517-0.129-1.055-0.525-1.413 c-2.12-1.957-2.876-4.546-3.33-6.376c4.082,2.458,6.371,1.841,8.121,1.514c0.52-0.11,1.015-0.211,1.484-0.211 c2.555-0.011,3.889,0.701,4.736,1.751c0.931,1.039,1.297,2.473,1.685,3.96c0.098,0.354,0.18,0.718,0.298,1.023 c0.124,0.327,0.274,0.653,0.433,1.013c0.222,0.506,0.464,1.038,0.665,1.603l0,0c0.809,2.437,0.97,4.372-2.07,6.86 c-0.377,0.333-0.82,0.555-1.284,0.802c-1.529,0.876-3.715,1.898-5.287,6.466c-0.865-1.703-1.716-4.383-1.437-7.262 c0.098-0.559-0.124-1.16-0.557-1.514c-0.427-0.354-0.965-0.411-1.355-0.116c-4.137,3.228-7.841,0.417-9.769-2.162 C7.886,102.035,8.994,100.875,10.087,99.809z"></path> <path d="M20.36,42.421c-0.108-0.443-0.427-0.746-0.854-0.783c-0.422-0.04-0.886,0.192-1.227,0.609c0,0-0.788,0.946-1.645,2.607 c-0.833,1.68-1.55,4.203-1.627,7c-1.107-0.132-2.133-0.045-3.035,0.079c-1.912,0.227-3.32,0.488-4.839-1.316 c-0.298-0.358-0.767-0.422-1.21-0.163c-0.438,0.266-0.804,0.799-0.928,1.421c0.032,0.145-0.825,3.546,0.129,6.921 c0.701,2.658,2.381,5.477,5.956,6.093c-2.71,4.583-2.375,9.287-2.268,9.498c0.071,0.517,0.335,0.949,0.736,1.123 c0.372,0.177,0.804,0.087,1.139-0.232c2.001-2.046,3.67-2.9,5.01-3.288c1.329-0.385,2.339-0.292,3.272-0.211 c0.623,0.059,1.266,0.114,1.922,0.042c2.961-0.292,4.743-1.252,5.806-2.434c1.15-1.173,1.717-2.566,2.03-3.797 c0.093-0.335,0.129-0.659,0.206-0.989l4.704,1.421c-1.324,0.285-2.502,0.857-3.489,1.732c-1.015,0.87-1.803,2.041-2.154,3.499 c-0.314,1.042-0.359,2.112-0.217,3.106c0.177,1.004,0.675,1.948,1.263,2.75c1.226,1.613,3.087,2.652,5.329,2.879 c3.715,0.29,7.209-1.65,7.776-4.071c0.061-0.158,0.108-0.316,0.119-0.475c0.137-0.835-0.14-1.7-0.804-2.547 c-0.82-0.999-1.927-1.816-3.354-2.286c-1.181-0.377-2.434-0.398-3.567,0.021c-0.788,0.337-1.39,0.87-1.788,1.55 c-0.73,0.596-0.86,1.622-0.221,2.344c0.54,0.617,1.437,0.82,2.246,0.633c0.367-0.034,0.738-0.113,1.052-0.309 c0.928-0.551,1.097-1.561,0.39-2.35c-0.169-0.195-0.38-0.351-0.601-0.475c0.612-0.227,1.297-0.253,1.972-0.061 c0.96,0.287,1.782,0.828,2.299,1.498c0.53,0.669,0.691,1.392,0.443,2.088c-0.475,1.849-2.953,3.225-5.653,2.903 c-3.446-0.391-5.978-3.552-4.904-6.692c0.509-2.02,1.941-3.349,3.705-3.971c1.782-0.62,4.008-0.512,6.615,0.232 c0.124,0.04,0.253,0.055,0.356,0.045l13.252,4c0.617,0.185,1.154,0.093,1.284-0.182c0.114-0.282-0.29-0.68-0.894-0.896 l-13.257-4.622c-0.05-0.023-0.093-0.061-0.143-0.076c-2.553-0.934-4.417-2.154-5.514-3.716c-1.181-1.576-1.326-3.401-0.669-5.384 c0.427-1.587,1.767-2.629,3.214-3.098c1.463-0.461,3.111-0.298,4.638,0.533c2.35,1.318,3.662,3.952,2.948,5.724 c-0.322,0.643-0.799,1.173-1.608,1.416c-0.809,0.243-1.767,0.211-2.721-0.129c-0.654-0.24-1.205-0.659-1.571-1.21 c0.264,0.031,0.52,0.021,0.768-0.032c1.015-0.232,1.402-1.195,1.057-2.141c-0.124-0.327-0.367-0.599-0.641-0.836 c-0.54-0.619-1.384-0.999-2.225-0.83c-1.015,0.16-1.458,1.102-1.215,2.02c-0.056,0.793,0.134,1.603,0.588,2.325 c0.611,0.994,1.627,1.704,2.813,2.091c1.432,0.459,2.9,0.496,4.095,0.14c1.031-0.29,1.666-0.875,2.12-1.598 c0.097-0.134,0.158-0.279,0.221-0.432c0.488-1.176,0.179-2.668-0.475-4.082c-0.643-1.395-1.814-2.813-3.428-3.76 c-1.917-1.124-4.219-1.506-6.07-0.852c-1.848,0.625-3.667,2.014-4.271,4.126c-1.036,2.811-0.34,5.506,1.479,7.515l-4.672-1.629 c0.061-0.158,0.108-0.309,0.158-0.469c0.841-2.782,2.942-6.858-2.613-11.277c-0.53-0.409-1.097-0.707-1.659-0.986 C23.833,48.807,21.774,48.022,20.36,42.421z M27.564,61.203c-0.124,0.351-0.243,0.696-0.356,1.015 c-0.098,0.33-0.201,0.675-0.309,1.036c-0.124,0.541-0.253,1.113-0.379,1.696c-0.641,2.479-1.878,4.087-5.717,4.348 c-0.498,0.031-0.983-0.045-1.508-0.113c-1.759-0.19-4.082-0.633-8.024,2.138c0.156-0.952,0.433-2.085,0.907-3.261 c0.432-1.185,1.149-2.379,2.204-3.441c0.393-0.398,0.562-1.015,0.419-1.561c-0.135-0.546-0.551-0.907-1.031-0.896 c-2.592,0.05-4.271-0.955-5.286-2.458c-1.052-1.511-1.34-3.448-1.313-5.004c1.59,0.746,3.148,0.448,4.656,0.227 c1.306-0.2,2.655-0.361,4.148,0.119c0.409,0.134,0.896-0.026,1.237-0.417c0.334-0.388,0.464-0.955,0.403-1.448 c-0.393-2.748,0.271-5.416,1.036-7.111c1.854,4.369,4.121,5.244,5.703,6.001c0.485,0.222,0.941,0.419,1.339,0.712 C29.821,55.779,28.502,58.252,27.564,61.203z"></path> <path d="M25.76,33.596c-0.266,0.448-0.319,0.952-0.113,1.313c0.192,0.367,0.604,0.551,1.068,0.485 c5.833-0.706,7.322,0.876,8.786,2.081c0.469,0.408,0.957,0.83,1.529,1.165c2.51,1.458,4.546,1.756,6.178,1.495 c1.635-0.248,2.774-1.208,3.839-1.917c0.274-0.206,0.525-0.419,0.783-0.636l2.975,3.921c-1.237-0.562-2.603-0.891-3.887-0.714 c-1.287,0.164-2.582,0.691-3.818,1.561c-1.7,1.334-2.597,3.375-2.613,5.334c0.09,2.07,1.021,4.034,2.716,5.542 c1.403,1.237,3.104,1.917,4.654,2.127c0.789,0.104,1.5,0.074,2.154-0.081c0.72-0.114,1.339-0.351,1.859-0.752 c0.124-0.103,0.248-0.203,0.345-0.329c0.562-0.646,0.815-1.543,0.836-2.553c-0.016-1.226-0.485-2.592-1.36-3.818 c-0.733-1.01-1.722-1.75-2.872-2.041c-0.833-0.222-1.685-0.169-2.426,0.113c-0.967,0.031-1.603,0.846-1.5,1.813 c0.093,0.836,0.707,1.532,1.464,1.852c0.319,0.189,0.641,0.335,1.015,0.361c1.063,0.097,1.696-0.728,1.669-1.712 c-0.019-0.242-0.092-0.49-0.19-0.717c0.638,0.182,1.226,0.577,1.648,1.128c0.609,0.793,0.944,1.69,0.944,2.521 c0.011,0.833-0.232,1.571-0.81,2.009c-1.566,1.139-4.337,0.82-6.323-1.015c-2.647-2.426-2.616-6.281-0.05-8.332 c1.722-1.182,3.539-1.572,5.329-1.031c1.854,0.588,3.597,2.009,5.281,4.143c0.082,0.103,0.169,0.187,0.271,0.253l8.375,11.016 c0.385,0.511,0.907,0.783,1.149,0.593c0.246-0.188,0.132-0.778-0.232-1.3l-8.008-11.525c-0.021-0.053-0.037-0.103-0.079-0.145 c-1.503-2.257-2.354-4.391-2.281-6.239c0.071-1.819,0.886-3.618,2.608-4.762c1.35-0.88,2.956-1.144,4.403-0.648 c1.469,0.535,2.737,1.68,3.488,3.262c0.583,1.226,0.723,2.55,0.533,3.673c-0.198,1.129-0.733,2.015-1.505,2.629 c-0.583,0.422-1.334,0.488-2.139,0.185c-0.788-0.309-1.571-0.928-2.133-1.727c-0.388-0.562-0.599-1.271-0.567-1.907 c0.19,0.172,0.398,0.33,0.644,0.425c0.97,0.443,1.888-0.016,2.133-1.052c0.095-0.351,0.059-0.718-0.034-1.079 c-0.074-0.828-0.551-1.627-1.305-1.951c-0.876-0.388-1.828,0.032-2.16,0.896c-0.562,0.551-0.833,1.355-0.886,2.241 c-0.065,1.194,0.335,2.375,1.073,3.38c0.886,1.21,2.046,2.057,3.188,2.42c1.015,0.387,1.927,0.409,2.7,0.037 c0.135-0.071,0.285-0.152,0.409-0.248c1.015-0.823,1.75-1.93,2.024-3.543c0.277-1.562,0.146-3.412-0.588-5.113 c-0.907-2.075-2.479-3.549-4.396-4.224c-1.938-0.772-4.061-0.335-5.885,0.804c-1.255,0.793-2.091,1.988-2.626,3.127 c-0.541,1.188-0.773,2.41-0.578,3.823l-2.824-4.066c0.124-0.098,0.258-0.195,0.377-0.298c1.21-0.793,2.824-1.753,3.852-3.422 c1.062-1.572,1.677-3.747,0.696-7.172c-0.179-0.649-0.475-1.221-0.767-1.769c-0.793-1.669-2.051-3.642,0.114-8.954 c0.179-0.417,0.103-0.844-0.232-1.129c-0.324-0.293-0.833-0.39-1.36-0.258c0,0-0.319,0.042-0.799,0.248 c-0.499,0.201-1.216,0.517-2.03,0.971c-1.653,0.917-3.813,2.317-5.405,4.72c-0.802-0.738-1.685-1.247-2.502-1.711 c-1.685-0.967-3.016-1.608-3.154-3.92c-0.031-0.459-0.355-0.789-0.886-0.847c-0.527-0.061-1.139,0.145-1.603,0.562 c-0.145,0.026-2.613,2.553-3.926,5.701c-1.083,2.436-1.231,5.882,1.253,8.435C28.184,29.261,25.916,33.461,25.76,33.596z M35.975,28.985c0.546-0.108,1.015-0.533,1.221-1.053c0.222-0.509,0.113-1.03-0.295-1.318c-4.375-2.963-2.787-7.251-0.957-9.893 c0.86,1.54,2.262,2.183,3.612,2.895c1.194,0.627,2.389,1.302,3.312,2.571c0.253,0.356,0.743,0.517,1.252,0.417 c0.517-0.108,0.971-0.454,1.192-0.907c1.195-2.626,3.388-4.219,5.012-5.157c-1.086,4.611,0.222,6.592,1.063,8.158 c0.266,0.458,0.519,0.886,0.675,1.361c1.519,4.709-0.831,6.233-3.438,7.873c-0.319,0.227-0.588,0.448-0.865,0.654 c-0.253,0.221-0.546,0.458-0.82,0.702c-0.422,0.363-0.865,0.746-1.339,1.102c-2.046,1.551-3.818,2.323-7.172,0.158 c-0.419-0.271-0.783-0.617-1.166-0.988c-1.279-1.163-3.014-3.009-7.728-2.993C30.792,31.128,33.13,29.575,35.975,28.985z"></path> <path d="M85.221,0.474c-0.375-0.345-1.002-0.53-1.614-0.458c-0.132,0.042-3.609,0.313-6.504,2.272 c-2.299,1.474-4.451,3.926-3.942,7.502C70.595,9.217,68.172,9.394,66.4,9.67c-1.761,0.295-2.845,0.884-2.977,0.912 c-0.48,0.217-0.799,0.609-0.852,1.031c-0.061,0.417,0.166,0.794,0.572,1.015c5.097,2.645,5.416,5.028,5.88,6.797 c0.134,0.612,0.287,1.237,0.562,1.864c1.194,2.721,2.647,4.126,4.116,4.802c1.463,0.651,2.963,0.856,4.216,0.754h0.01 c0.335-0.011,0.665-0.058,1.004-0.098l0.113,4.92c-1.339-2.299-3.715-3.984-6.726-3.797c-1.087,0.04-2.133,0.271-3.035,0.741 c-0.881,0.535-1.648,1.236-2.22,2.057c-1.178,1.638-1.571,3.726-1.076,5.988c0.411,1.858,1.371,3.306,2.523,4.461 c1.16,1.123,2.457,1.788,3.715,1.664l0.485-0.032c0.841-0.113,1.582-0.643,2.175-1.529c0.704-1.052,1.134-2.457,1.147-3.92 c0.011-1.221-0.369-2.495-1.107-3.359c-0.557-0.641-1.247-1.068-2.025-1.242c-0.789-0.506-1.814-0.335-2.312,0.488 c-0.417,0.712-0.33,1.671,0.098,2.354c0.14,0.335,0.334,0.635,0.604,0.889c0.807,0.725,1.832,0.585,2.365-0.322 c0.119-0.216,0.222-0.459,0.272-0.715c0.393,0.515,0.635,1.163,0.659,1.87c0.021,1.004-0.243,1.938-0.72,2.639 c-0.485,0.694-1.118,1.061-1.856,1.031c-1.901,0.174-3.963-1.846-4.493-4.49c-0.33-1.719,0.032-3.354,0.917-4.622 c0.875-1.324,2.323-2.086,3.937-2.081c1.031-0.005,1.982,0.114,2.813,0.525c0.82,0.433,1.529,1.025,2.112,1.788 c1.15,1.516,1.717,3.67,1.825,6.381c0.01,0.132,0.031,0.248,0.076,0.359l0.285,13.832c0.01,0.644,0.287,1.142,0.577,1.118 c0.309,0.028,0.566-0.475,0.577-1.118l0.304-14.038c0.005-0.056,0.026-0.103,0.031-0.158c0.103-2.71,0.681-4.859,1.833-6.381 c0.562-0.762,1.266-1.355,2.099-1.788c0.833-0.406,1.771-0.536,2.815-0.525c1.635-0.016,3.069,0.752,3.935,2.081 c0.896,1.268,1.244,2.903,0.938,4.609c-0.538,2.652-2.6,4.672-4.493,4.498c-0.749,0.019-1.392-0.332-1.866-1.036 c-0.485-0.696-0.749-1.64-0.718-2.639c0.021-0.702,0.253-1.35,0.654-1.87c0.053,0.253,0.137,0.504,0.274,0.72 c0.548,0.907,1.55,1.042,2.362,0.322c0.284-0.253,0.464-0.554,0.596-0.886c0.422-0.68,0.532-1.645,0.11-2.357 c-0.495-0.817-1.497-0.994-2.299-0.488c-0.786,0.174-1.466,0.599-2.025,1.242c-0.765,0.865-1.128,2.138-1.117,3.359 c0.01,1.463,0.442,2.863,1.139,3.92c0.585,0.886,1.34,1.416,2.173,1.521c0.152,0.034,0.337,0.018,0.485,0.044 c1.26,0.119,2.584-0.545,3.718-1.669c1.16-1.154,2.114-2.607,2.521-4.472c0.512-2.257,0.1-4.351-1.07-5.982 c-0.58-0.81-1.34-1.517-2.226-2.052c-0.907-0.469-1.931-0.701-3.032-0.741c-2.99-0.182-5.334,1.463-6.674,3.72l0.108-4.946 c0.161,0.008,0.335,0.013,0.495,0.019c1.438,0.113,3.333,0.026,5.105-0.525c1.782-0.623,3.564-2.123,4.799-5.466 c0.231-0.625,0.337-1.263,0.422-1.882c0.337-1.838,0.475-4.143,5.326-7.125c0.39-0.237,0.563-0.63,0.495-1.047 c-0.105-0.422-0.475-0.799-0.97-0.999c0,0-0.29-0.113-0.791-0.274C95.568,9.188,94.85,8.93,93.89,8.858 c-1.866-0.176-4.45-0.237-7.129,0.633c-0.222-1.057-0.623-1.975-1.019-2.819C84.936,4.917,84.261,3.643,85.5,1.66 C85.685,1.278,85.611,0.819,85.221,0.474z M86.223,12.402c2.499-1.334,5.215-1.355,7.087-1.226 c-3.596,3.153-3.712,5.519-3.938,7.285c-0.063,0.53-0.111,1.021-0.264,1.49c-0.775,2.407-1.862,3.509-3.122,3.958 c-1.25,0.53-2.742,0.488-4.282,0.411c-0.361-0.016-0.741-0.026-1.076-0.039c-0.335-0.005-0.695-0.005-1.062,0.055 c-0.562,0.071-1.139,0.134-1.732,0.161c-1.271,0.071-2.389-0.068-3.37-0.69c-0.973-0.572-1.804-1.582-2.519-3.412 c-0.182-0.459-0.264-0.944-0.351-1.469c-0.351-1.74-0.643-4.076-4.493-7.008c1.901-0.229,4.662-0.412,7.312,0.913 c0.509,0.253,1.139,0.227,1.614-0.066c0.488-0.303,0.688-0.793,0.541-1.258c-0.841-2.468-0.398-4.358,0.709-5.771 c1.104-1.416,2.845-2.399,4.334-2.821c-0.211,1.735,0.541,3.143,1.216,4.512c0.588,1.197,1.171,2.428,1.16,3.994 c0,0.438,0.316,0.844,0.791,1.05C85.221,12.671,85.78,12.65,86.223,12.402z"></path> <path d="M107.1,36.42c-0.563-1.16-1.387-2.365-2.646-3.17c-1.836-1.144-3.939-1.576-5.896-0.804 c-1.914,0.68-3.485,2.154-4.393,4.229c-0.754,1.701-0.854,3.552-0.591,5.113c0.285,1.608,1.023,2.721,2.025,3.533 c0.137,0.105,0.285,0.187,0.422,0.258c0.77,0.372,1.683,0.345,2.689-0.037c1.149-0.364,2.305-1.221,3.186-2.421 c0.748-1.005,1.139-2.193,1.075-3.386c-0.042-0.886-0.332-1.685-0.875-2.235c-0.349-0.865-1.287-1.292-2.173-0.902 c-0.77,0.33-1.234,1.124-1.297,1.949c-0.096,0.356-0.116,0.736-0.032,1.086c0.232,1.031,1.149,1.49,2.131,1.052 c0.231-0.103,0.453-0.253,0.644-0.427c0.031,0.627-0.18,1.339-0.564,1.914c-0.564,0.799-1.329,1.424-2.136,1.727 c-0.802,0.298-1.551,0.243-2.142-0.19c-0.78-0.609-1.302-1.495-1.503-2.623c-0.185-1.124-0.053-2.447,0.533-3.673 c0.77-1.582,2.004-2.721,3.491-3.261c1.466-0.496,3.059-0.232,4.397,0.648c1.74,1.145,2.563,2.938,2.626,4.757 c0.063,1.854-0.78,3.981-2.294,6.238c-0.079,0.108-0.11,0.222-0.152,0.335l-7.916,11.356c-0.353,0.538-0.464,1.118-0.221,1.3 c0.247,0.185,0.765-0.082,1.154-0.588l8.496-11.172c0.036-0.04,0.089-0.066,0.11-0.113c1.688-2.139,3.438-3.555,5.284-4.143 c1.793-0.541,3.606-0.15,5.326,1.025c2.584,2.046,2.595,5.912-0.042,8.327c-1.994,1.846-4.757,2.159-6.328,1.025 c-0.57-0.443-0.823-1.176-0.802-2.015c0-0.819,0.327-1.722,0.938-2.515c0.422-0.556,1.013-0.947,1.646-1.139 c-0.105,0.232-0.169,0.48-0.19,0.728c-0.042,0.989,0.591,1.804,1.672,1.706c0.354-0.026,0.696-0.166,1.008-0.355 c0.78-0.319,1.381-1.016,1.466-1.852c0.116-0.967-0.549-1.782-1.498-1.813c-0.759-0.293-1.593-0.335-2.426-0.113 c-1.139,0.29-2.141,1.03-2.868,2.046c-0.876,1.221-1.351,2.586-1.361,3.818c0.021,1.004,0.28,1.901,0.834,2.547 c0.11,0.118,0.231,0.227,0.348,0.329c0.506,0.401,1.139,0.638,1.846,0.757c0.654,0.15,1.393,0.18,2.167,0.076 c1.546-0.205,3.265-0.886,4.657-2.127c1.688-1.508,2.62-3.483,2.71-5.535c-0.021-1.962-0.907-4.008-2.604-5.342 c-2.458-1.743-5.095-2.078-7.637-0.886l2.996-3.937c0.137,0.097,0.273,0.185,0.4,0.287c2.352,1.701,5.674,4.859,11.496,1.015 c0.559-0.369,1.013-0.823,1.466-1.271c1.371-1.295,2.758-3,8.564-2.676c0.464,0.026,0.844-0.19,1.013-0.578 c0.168-0.385,0.084-0.891-0.222-1.334c0,0-0.665-1.015-2.015-2.333c-1.287-1.355-3.449-2.813-6.148-3.683 c0.464-1,0.686-1.986,0.886-2.922c0.39-1.922,0.611-3.375,2.763-4.206c0.433-0.168,0.633-0.583,0.549-1.113 c-0.084-0.53-0.517-1.004-1.05-1.308c-0.068-0.032-0.864-0.464-2.083-0.923c-1.223-0.459-2.821-0.96-4.524-1.094 c-2.763-0.122-5.975,0.63-7.678,3.821c-1.656-2.104-3.776-3.277-5.379-4.077c-1.624-0.783-2.784-1.079-2.911-1.079 c-0.527-0.092-1.018,0.042-1.308,0.351c-0.296,0.309-0.338,0.749-0.116,1.155c2.521,5.25,1.424,7.274,0.749,8.996 c-0.243,0.572-0.496,1.171-0.639,1.819c-0.638,2.922-0.221,4.797,0.512,6.292c0.738,1.479,1.92,2.392,3.017,3.056l0,0 c0.306,0.169,0.564,0.361,0.844,0.546l-2.811,4.039C107.844,38.862,107.623,37.615,107.1,36.42z M108.55,26.986 c0.116-0.475,0.338-0.917,0.57-1.397c0.728-1.613,1.877-3.678,0.442-8.245c0.844,0.433,1.856,1.026,2.827,1.825 c0.97,0.804,1.846,1.938,2.573,3.214c0.264,0.49,0.791,0.825,1.36,0.856c0.559,0.035,1.023-0.253,1.182-0.722 c0.759-2.473,2.225-3.747,3.986-4.266c1.698-0.475,3.617-0.124,5.115,0.335c-1.202,1.273-1.402,2.834-1.65,4.335 c-0.206,1.297-0.475,2.615-1.403,3.884c-0.253,0.345-0.242,0.846,0,1.318c0.243,0.464,0.718,0.799,1.219,0.873 c2.795,0.422,5.109,1.848,6.428,3.177c-4.646,0.34-6.186,2.246-7.414,3.52c-0.343,0.387-0.686,0.762-1.076,1.052 c-2.057,1.503-3.606,1.777-4.92,1.437c-1.318-0.345-2.384-1.36-3.676-2.23c-0.311-0.222-0.585-0.438-0.864-0.63 c-0.296-0.185-0.586-0.385-0.918-0.602c-0.464-0.301-0.949-0.619-1.45-0.949C108.719,32.441,107.565,30.793,108.55,26.986z"></path> <path d="M157.309,60.425c0.211-0.475,0.189-1.128-0.074-1.69c-0.021-0.071-0.38-0.896-1.055-1.999 c-0.696-1.092-1.813-2.412-3.122-3.52c-2.066-1.767-5.094-3.046-8.374-1.442c-0.295-2.603-1.086-4.92-1.962-6.476 c-0.917-1.542-1.719-2.439-1.803-2.542c-0.349-0.385-0.823-0.578-1.234-0.499c-0.406,0.077-0.707,0.406-0.791,0.865 c-1.033,5.729-3.006,6.658-4.609,7.688c-0.537,0.319-1.091,0.649-1.603,1.103c-4.504,3.997-3.47,7.229-2.722,9.671 c0.116,0.324,0.254,0.617,0.38,0.928l-4.641,1.616c1.872-2.015,2.595-4.725,1.54-7.573c-0.602-2.109-2.426-3.499-4.271-4.129 c-1.846-0.648-4.145-0.266-6.075,0.862c-1.608,0.952-2.773,2.365-3.428,3.755c-0.644,1.413-0.96,2.906-0.464,4.082 c0.063,0.155,0.116,0.298,0.222,0.432c0.453,0.722,1.086,1.313,2.12,1.598c1.196,0.351,2.657,0.318,4.092-0.135 c1.197-0.391,2.204-1.107,2.816-2.096c0.453-0.722,0.643-1.527,0.59-2.32c0.243-0.92-0.2-1.859-1.223-2.025 c-0.834-0.164-1.683,0.211-2.215,0.83c-0.274,0.232-0.522,0.515-0.644,0.836c-0.338,0.947,0.042,1.906,1.055,2.139 c0.253,0.061,0.506,0.066,0.77,0.04c-0.369,0.545-0.928,0.97-1.593,1.203c-0.938,0.343-1.903,0.374-2.699,0.132 c-0.791-0.243-1.298-0.763-1.614-1.416c-0.706-1.767,0.596-4.401,2.942-5.719c1.54-0.826,3.196-1,4.641-0.533 c1.445,0.47,2.785,1.511,3.217,3.093c0.654,1.983,0.518,3.808-0.664,5.39c-1.107,1.561-2.984,2.782-5.526,3.715 c-0.116,0.042-0.222,0.108-0.327,0.172l-13.067,4.554c-0.591,0.211-1.018,0.608-0.896,0.891c0.132,0.27,0.664,0.367,1.281,0.185 l13.437-4.044c0.063-0.005,0.111-0.005,0.153-0.024c2.604-0.738,4.841-0.846,6.618-0.227c1.761,0.611,3.211,1.943,3.718,3.958 c1.075,3.148-1.466,6.314-4.894,6.699c-2.7,0.322-5.179-1.055-5.675-2.908c-0.231-0.686-0.079-1.413,0.443-2.083 c0.538-0.675,1.339-1.215,2.32-1.492c0.675-0.198,1.36-0.171,1.962,0.056c-0.222,0.124-0.433,0.284-0.591,0.475 c-0.707,0.788-0.549,1.798,0.38,2.354c0.326,0.185,0.686,0.269,1.044,0.298c0.807,0.192,1.703-0.005,2.257-0.628 c0.633-0.717,0.496-1.737-0.222-2.344c-0.4-0.68-1.018-1.226-1.793-1.545c-1.128-0.419-2.384-0.403-3.564-0.021 c-1.43,0.47-2.537,1.282-3.354,2.281c-0.653,0.841-0.959,1.706-0.801,2.547c0.021,0.158,0.062,0.311,0.115,0.469 c0.56,2.426,4.082,4.367,7.784,4.071c2.235-0.222,4.113-1.26,5.326-2.884c0.591-0.797,1.075-1.743,1.266-2.745 c0.132-1,0.084-2.064-0.222-3.101c-0.358-1.448-1.129-2.608-2.136-3.479c-0.986-0.87-2.136-1.458-3.454-1.737l4.746-1.427 c0.048,0.15,0.09,0.309,0.121,0.47c0.332,1.4,0.923,3.198,2.072,4.709c1.118,1.511,3.08,2.748,6.635,2.885 c0.675,0.026,1.308-0.071,1.919-0.169c0.949-0.145,1.914-0.324,3.265-0.031c1.376,0.292,3.021,1.025,5.157,2.905 c0.332,0.296,0.786,0.343,1.149,0.124c0.364-0.211,0.622-0.675,0.654-1.21c0,0,0.031-0.309,0.031-0.841 c0.021-0.541-0.063-1.302-0.264-2.225c-0.4-1.835-1.055-4.338-2.8-6.61c0.938-0.541,1.688-1.21,2.384-1.841 c1.424-1.318,2.436-2.359,4.693-1.777C156.676,61.121,157.087,60.899,157.309,60.425z M149.958,60.24 c-0.96,0.933-1.962,1.864-3.459,2.338c-0.411,0.13-0.707,0.557-0.78,1.068c-0.043,0.52,0.142,1.055,0.527,1.41 c2.119,1.959,2.879,4.551,3.332,6.373c-4.081-2.457-6.37-1.838-8.121-1.513c-0.521,0.108-1.018,0.211-1.486,0.211 c-2.553,0.01-3.893-0.702-4.736-1.756c-0.928-1.036-1.286-2.468-1.688-3.952c-0.095-0.361-0.179-0.723-0.284-1.036 c-0.138-0.314-0.285-0.648-0.433-1c-0.232-0.511-0.475-1.046-0.675-1.608c-0.802-2.436-0.971-4.369,2.067-6.869 c0.39-0.319,0.822-0.546,1.286-0.794c1.529-0.875,3.713-1.9,5.284-6.465c0.865,1.701,1.719,4.374,1.439,7.254 c-0.1,0.556,0.121,1.154,0.554,1.516c0.433,0.356,0.971,0.411,1.36,0.113c4.124-3.227,7.837-0.414,9.767,2.162 C152.162,58.015,151.054,59.172,149.958,60.24z"></path> </g> </g> </g></svg>